<svg xmlns="http://www.w3.org/2000/svg" viewBox="0 0 762.1 457.3" height="100%" width="100%">
<title>Accordion</title>
<path d="M 16.63,70.07 C 8.65,71.77 3.186,79.89 5.165,88.13 L 81.27,444.9 c 1.72,8.2 9.85,13.5 18.05,11.5 L 211.6,432.5 129.3,46.05 16.63,70.07 Z" style="fill:hsl(225,30%,50%)" />
<rect transform="matrix(0.2086,0.978,-0.978,0.2086,0,0)" rx="15.22" y="-80.43" x="105.3" height="94.09" width="319.1" style="fill:hsl(225,30%,30%)" />
<g  style="fill:hsl(30,30%,80%)" transform="matrix(0.2086,0.978,-0.978,0.2086,0,0)">
	<circle  r="7" cy="-66.94" cx="141.5" />
	<circle cx="168.9" cy="-66.94" r="7" />
	<circle r="7" cy="-66.94" cx="196.3" />
	<circle cx="223.4" cy="-66.94" r="7" />
	<circle r="7" cy="-66.94" cx="250.8" />
	<circle cx="278.2" cy="-66.94" r="7" />
	<circle r="7" cy="-66.94" cx="305.6" />
	<circle cx="332.8" cy="-66.94" r="7" />
	<circle cx="156.7" cy="-45.89" r="7" />
	<circle r="7" cy="-45.89" cx="184.1" />
	<circle cx="211.5" cy="-45.89" r="7" />
	<circle r="7" cy="-45.89" cx="238.9" />
	<circle cx="266.1" cy="-45.89" r="7" />
	<circle r="7" cy="-45.89" cx="293.5" />
	<circle cx="320.9" cy="-45.89" r="7" />
	<circle r="7" cy="-45.89" cx="348.3" />
	<circle r="7" cy="-24.78" cx="175.7" />
	<circle cx="203.1" cy="-24.78" r="7" />
	<circle r="7" cy="-24.78" cx="230.3" />
	<circle cx="257.7" cy="-24.78" r="7" />
	<circle r="7" cy="-24.78" cx="285.1" />
	<circle cx="312.5" cy="-24.78" r="7" />
	<circle r="7" cy="-24.78" cx="339.7" />
	<circle cx="367" cy="-24.78" r="7" />
	<circle cx="191" cy="-3.79" r="7" />
	<circle r="7" cy="-3.79" cx="218.4" />
	<circle cx="245.8" cy="-3.79" r="7" />
	<circle r="7" cy="-3.79" cx="272.9" />
	<circle cx="300.3" cy="-3.79" r="7" />
	<circle r="7" cy="-3.79" cx="327.7" />
	<circle cx="355.1" cy="-3.79" r="7" />
	<circle r="7" cy="-3.79" cx="382.5" />
</g>
<rect transform="matrix(-0.0228,-0.9997,0.9997,-0.0228,0,0)" style="fill:hsl(30,30%,80%)" width="395.2" height="150.9" x="-413.8" y="597.1" rx="15.22" />
<g style="fill:#1a1a1a">
	<path d="m 643.1,371 78.9,-1.8 -0.2,-9.8 34.3,-0.9 0.3,-2.1 -34.6,0.9 -0.2,-9.9 -78.8,1.9 z" />
	<path d="m 642.5,339.3 78.7,-1.9 -0.2,-9.9 34.5,-1 0,-2 -34.5,0.9 -0.1,-10 -78.8,1.9 z" />
	<path d="m 641,275.4 78.8,-1.7 -0.2,-10.1 34.5,-0.9 -0.1,-2 -34.4,0.9 -0.1,-10.2 -78.8,1.7 z" />
	<path d="m 640.2,243.3 78.9,-1.8 -0.3,-10.4 34.5,-0.5 0.2,-2.1 -34.5,0.8 -0.2,-9.6 -79.1,1.6 z" />
	<path d="m 639.5,211.6 78.8,-1.8 -0.1,-10.4 34.4,-0.7 0.1,-2 -34.5,0.7 -0.1,-10 -79.2,1.8 z" />
	<path d="m 638.2,147.2 78.6,-1.7 -0.2,-10.2 34.6,-0.7 -0.1,-2.1 -34.6,0.7 -0.1,-9.8 -78.9,1.9 z" />
	<path d="m 637.3,115.3 78.7,-1.7 0,-10.2 34.4,-0.8 0,-2.1 -34.5,0.7 -0.3,-9.72 -78.8,1.86 z" />
	<path d="m 635.7,51.38 79.1,-1.82 -0.2,-10.16 34.2,-0.72 0.3,-2.11 -34.6,0.79 -0.1,-9.83 -79,1.81 z" />
</g>
<g style="fill:none;stroke:#000000;stroke-width:2.5">
	<path d="m 754.8,293.6 -112.6,2.8" />
	<path d="m 751.9,165.8 -112.5,2.5" />
	<path d="M 749.6,69.87 637.1,72.45" />
</g>
<g transform="matrix(-0.0228,-0.9997,0.9997,-0.0228,0,0)" style="fill:#e5cda9">
	<rect y="592" x="-413.8" height="41.98" width="395.2" style="fill:hsl(225,30%,50%)" />
	<rect y="600" x="-320.7" height="22" width="22" />
	<rect width="22" height="22" x="-284.7" y="600.1" />
	<rect y="600.1" x="-248.6" height="22" width="22"/>
	<rect width="22" height="22" x="-213" y="600" />
	<rect y="600.1" x="-177" height="22" width="22" />
	<rect width="22" height="22" x="-140.8" y="600" />
</g>
<path d="m 195.2,66.96 54.5,-42.41 58.6,384.65 -46.5,43.1 z" style="fill:hsl(30,30%,80%)" />
<path d="m 250.7,23.84 62.6,29.21 49,381.75 -52.4,-25.8 z" style="fill:hsl(30,30%,90%)" />
<path d="m 367.2,13.74 -52.3,39.17 48.5,381.39 41.5,-38.5 z" style="fill:hsl(30,30%,80%)" />
<path d="m 423.2,37.14 -54.8,-23.78 37.9,381.94 49,29.4 z" style="fill:hsl(30,30%,90%)" />
<path d="m 476.4,2.24 -51.6,34.5 31.6,387.56 43.7,-39.8 z" style="fill:hsl(30,30%,80%)" />
<path d="M 478,2.599 537.4,33.88 549.9,415.6 501.2,384.4 Z" style="fill:hsl(30,30%,90%)" />
<path d="m 590.2,5.121 -51,28.619 11.7,381.56 49.2,-15.5 z" style="fill:hsl(30,30%,80%)" />
<path d="M 194,66.75 130,45.35 212,431.9 260.8,453 Z" style="fill:hsl(30,30%,90%)" />
</svg>
