<?xml version="1.0" encoding="UTF-8"?>
<!DOCTYPE svg PUBLIC "-//W3C//DTD SVG 1.1//EN" "http://www.w3.org/Graphics/SVG/1.1/DTD/svg11.dtd">
<!-- Creator: CorelDRAW -->
<svg xmlns="http://www.w3.org/2000/svg" xml:space="preserve" width="98.8063mm" height="21.4206mm" style="shape-rendering:geometricPrecision; text-rendering:geometricPrecision; image-rendering:optimizeQuality; fill-rule:evenodd; clip-rule:evenodd"
viewBox="0 0 98.7586 21.4103" xmlns:xlink="http://www.w3.org/1999/xlink">
 <defs>
  <style type="text/css">
   <![CDATA[
    .fil4 {fill:red;fill-rule:nonzero}
    .fil1 {fill:#85C7E3;fill-rule:nonzero}
    .fil2 {fill:#A1DB87;fill-rule:nonzero}
    .fil3 {fill:#E18F33;fill-rule:nonzero}
    .fil0 {fill:#EBA1D6;fill-rule:nonzero}
    .fil5 {fill:#EEF8FC;fill-rule:nonzero}
   ]]>
  </style>
 </defs>
 <g id="Ebene_x0020_1">
  <metadata id="CorelCorpID_0Corel-Layer"/>
  <g id="_119550168">
   <path id="_120896168" class="fil0" d="M5.7927 1.48188c-0.273668,0.343334 -0.633194,0.906562 -1.08388,1.69578 -0.45608,0.801113 -0.783522,1.41862 -0.984725,1.85231 1.13225,-0.252978 1.91568,-0.379517 2.35037,-0.379517 0.211998,0 0.370221,0.0240884 0.480268,0.0722651 0.126039,0.0451782 0.187709,0.153626 0.187709,0.325343 0,0.364424 -0.182412,0.548135 -0.549935,0.548135 -0.0187909,0 -0.0616702,0 -0.126039,0 -0.155625,-0.0059971 -0.271069,-0.00899566 -0.343534,-0.00899566 -0.520449,0 -1.38173,0.189708 -2.58635,0.572224 -0.764631,1.47589 -1.43801,3.24094 -2.02022,5.29504 -0.0804612,0.313249 -0.201203,0.466875 -0.370221,0.466875 -0.147629,0 -0.270969,-0.0903564 -0.370321,-0.274068 -0.0777625,-0.132536 -0.118043,-0.268071 -0.118043,-0.403605 0,-0.153626 0.14483,-0.671676 0.43469,-1.55415 0.474871,-1.4518 1.15634,-3.01205 2.04171,-4.67764 0.560729,-1.0391 1.17783,-2.14446 1.84851,-3.3071 -0.179713,-0.0300855 -0.26827,-0.141532 -0.26827,-0.337337 0,-0.286162 0.24948,-0.509054 0.74584,-0.659682 0.692266,-0.219794 1.36564,-0.385514 2.02022,-0.502957 0.74594,-0.135535 1.31207,-0.204801 1.69838,-0.204801 0.614403,0 0.920256,0.174716 0.920256,0.521048 0,0.177714 -0.0697663,0.322344 -0.211898,0.433691 -0.0590715,0.0451782 -0.12354,0.0693665 -0.195905,0.0693665 -0.0643689,0 -0.152926,-0.00909561 -0.26837,-0.0271869 -0.177015,-0.0270869 -0.332639,-0.0421796 -0.464076,-0.0421796 -0.281764,0 -0.759333,0.0602709 -1.43001,0.183811 -0.482867,0.0842593 -0.928352,0.198804 -1.33615,0.343334z"/>
   <path id="_69770400" class="fil1" d="M10.1371 8.59615c-0.158324,0.457779 -0.276367,0.8283 -0.354129,1.11136 -0.0805611,0.283163 -0.118043,0.478969 -0.118043,0.590415 0,0.147529 0.0616702,0.219794 0.187809,0.219794 0.187809,0 0.431891,-0.198704 0.732446,-0.599311 0.139433,-0.192807 0.348832,-0.542138 0.627797,-1.04819 0.109947,-0.201803 0.225391,-0.301155 0.346133,-0.301155 0.136834,0 0.203802,0.0722651 0.203802,0.219794 0,0.253078 -0.260174,0.765131 -0.778024,1.53616 -0.53924,0.80721 -1.041,1.20782 -1.50247,1.20782 -0.198504,0 -0.359526,-0.0933549 -0.485566,-0.280165 -0.0885572,-0.135535 -0.134135,-0.301155 -0.134135,-0.493962 0,-0.33134 0.0884573,-0.78612 0.26827,-1.37044 0.177015,-0.581319 0.442686,-1.28908 0.791518,-2.12647 0.901465,-2.12337 1.82162,-3.87333 2.76067,-5.24977 0.748539,-1.10547 1.37104,-1.6596 1.862,-1.6596 0.158324,0 0.287161,0.0692666 0.386314,0.204801 0.104649,0.135535 0.155625,0.292159 0.155625,0.466875 0,0.825202 -0.654584,2.19564 -1.96385,4.11132 -0.587616,0.855387 -1.29048,1.70778 -2.10618,2.56016 -0.214596,0.222892 -0.509754,0.524047 -0.879975,0.900565zm0.558031 -1.40362c1.08927,-1.04809 2.0632,-2.37036 2.92179,-3.96968 0.445285,-0.831399 0.667978,-1.37953 0.667978,-1.6506 0,-0.129537 -0.0482767,-0.195805 -0.147529,-0.195805 -0.28976,0 -0.812908,0.644589 -1.57224,1.93367 -0.630396,1.05719 -1.253,2.35236 -1.87,3.88243z"/>
   <path id="_119844928" class="fil2" d="M17.0491 10.1744c-0.225391,0.35243 -0.423895,0.635493 -0.595612,0.846391 -0.303154,0.376518 -0.606307,0.566227 -0.904164,0.566227 -0.257576,0 -0.45608,-0.129537 -0.598311,-0.388512 -0.0992521,-0.180713 -0.147529,-0.400607 -0.147529,-0.653584 0,-0.759034 0.287061,-1.62951 0.863883,-2.61144 0.265572,-0.457779 0.531144,-0.80721 0.794117,-1.05109 0.204002,-0.192807 0.370321,-0.28916 0.501758,-0.28916 0.0750638,0 0.142231,0.033084 0.203902,0.105349 0.0535741,0.0632695 0.0804612,0.129537 0.0804612,0.192807 0,0.114445 -0.0965534,0.295158 -0.292459,0.548135 -0.43469,0.581319 -0.764631,1.11746 -0.989922,1.60542 -0.260274,0.572224 -0.391811,1.01801 -0.391811,1.34335 0,0.0812608 0.0161922,0.14453 0.0510753,0.189708 0.0320845,0.0421796 0.0804612,0.066268 0.14483,0.066268 0.26827,0 0.638592,-0.430692 1.11616,-1.28908 0.246781,-0.448783 0.458779,-0.942745 0.635793,-1.48188 0.0938547,-0.295158 0.217295,-0.557231 0.370221,-0.78612 0.147529,-0.2079 0.28976,-0.31025 0.431991,-0.31025 0.0777625,0 0.150227,0.0391811 0.211898,0.114445 0.0698663,0.0843593 0.101951,0.174716 0.101951,0.274068 0,0.213897 -0.179713,0.689767 -0.541938,1.43071 -0.246781,0.512053 -0.370221,0.936748 -0.370221,1.28008 0,0.364424 0.0885572,0.674674 0.260274,0.933649 0.0482767,0.0723651 0.190408,0.183811 0.431891,0.334339 0.115444,0.0783622 0.174416,0.201803 0.174416,0.37352 0,0.105449 -0.0401806,0.195805 -0.12334,0.271069 -0.0805611,0.0783622 -0.179813,0.114445 -0.295158,0.114445 -0.260274,0 -0.499059,-0.117443 -0.713755,-0.35243 -0.193107,-0.210798 -0.316447,-0.51805 -0.370221,-0.915558 -0.0106948,-0.0542738 -0.0240884,-0.2079 -0.0401806,-0.460878z"/>
   <path id="_113802824" class="fil3" d="M23.6524 6.24079c0.0885572,0 0.161022,0.0361825 0.219994,0.114445 0.0402806,0.0632695 0.0617702,0.129537 0.0617702,0.192807 0,0.105349 -0.0750638,0.283063 -0.22809,0.530044 -0.544637,0.945743 -0.930951,1.72587 -1.16164,2.33727 -0.246881,0.629496 -0.464176,1.27708 -0.654684,1.94276 -0.0831599,0.292159 -0.214696,0.439688 -0.391811,0.439688 -0.10455,0 -0.187709,-0.0451782 -0.252078,-0.141532 -0.0563728,-0.0752637 -0.0858586,-0.156624 -0.0858586,-0.246981 0,-0.174716 0.16632,-0.765031 0.501758,-1.76495 0.262873,-0.78612 0.686768,-1.6566 1.27428,-2.61144 0.187909,-0.31025 0.330041,-0.521048 0.423995,-0.626498 0.0938547,-0.111446 0.193107,-0.16562 0.292359,-0.16562zm1.49178 -3.27402c0.236086,0 0.354129,0.135535 0.354129,0.403605 0,0.246981 -0.115344,0.521048 -0.346133,0.822303 -0.219994,0.28916 -0.431891,0.430692 -0.635893,0.430692 -0.0992521,0 -0.179713,-0.0391811 -0.244082,-0.12354 -0.0617702,-0.0752637 -0.0938547,-0.168619 -0.0938547,-0.280065 0,-0.283163 0.139533,-0.584318 0.415799,-0.900565 0.204002,-0.234987 0.389012,-0.35243 0.550034,-0.35243z"/>
   <path id="_119103176" class="fil4" d="M29.4349 6.37332c0.523147,-1.23191 1.01951,-2.30119 1.48358,-3.21375 0.450682,-0.882574 0.759333,-1.43671 0.920256,-1.66869 0.179813,-0.252978 0.346133,-0.379517 0.504357,-0.379517 0.0831599,0 0.158324,0.0391811 0.22809,0.117543 0.0617702,0.0752637 0.0938547,0.156624 0.0938547,0.246981 0,0.132536 -0.0884573,0.361426 -0.268171,0.677673 -0.759333,1.37644 -1.4569,2.77396 -2.09009,4.19268 -0.732446,1.6535 -1.10007,2.8914 -1.10007,3.71371 0,0.334339 0.0563728,0.599411 0.171817,0.795116 0.0213897,0.0391811 0.115344,0.135635 0.284363,0.283163 0.0295857,0.0270869 0.045578,0.0873578 0.045578,0.174716 0,0.117443 -0.0402806,0.225891 -0.120742,0.322244 -0.0804612,0.0964534 -0.171617,0.14463 -0.270969,0.14463 -0.120642,0 -0.254877,-0.0813607 -0.402406,-0.246981 -0.209299,-0.234987 -0.335338,-0.506056 -0.375619,-0.810209 -0.0160922,-0.129537 -0.0348832,-0.370521 -0.0563728,-0.722951 -0.549935,1.11146 -1.07318,1.6657 -1.57224,1.6657 -0.287061,0 -0.51775,-0.180713 -0.689467,-0.545237 -0.115344,-0.240884 -0.174416,-0.515051 -0.174416,-0.822203 0,-0.915658 0.297856,-1.84031 0.896167,-2.77106 0.592914,-0.915658 1.22871,-1.37644 1.91028,-1.37644 0.187809,0 0.383615,0.0752637 0.582219,0.222892zm-0.26837 0.722851c-0.142231,-0.105449 -0.262973,-0.159623 -0.370221,-0.159623 -0.439988,0 -0.855887,0.304153 -1.2476,0.909561 -0.520549,0.789219 -0.778124,1.54815 -0.778124,2.2861 0,0.0873578 0.0134935,0.168719 0.0456779,0.246981 0.0643689,0.14463 0.158324,0.219894 0.284363,0.219894 0.182512,0 0.405104,-0.201803 0.668077,-0.599411 0.35153,-0.530044 0.676074,-1.15654 0.97393,-1.87939 0.104649,-0.246981 0.2065,-0.493962 0.305852,-0.740942 0,0 0.0241883,-0.0572724 0.072465,-0.168719l0.045578 -0.114445z"/>
   <path id="_119103248" class="fil5" d="M33.637 9.83105l0 0.159623c0,0.129537 0.0267871,0.240984 0.0858586,0.334339 0.131437,0.216895 0.346133,0.325243 0.643889,0.325243 0.654584,0 1.41122,-0.563228 2.2725,-1.69268 0.150227,-0.195805 0.278965,-0.292159 0.383615,-0.292159 0.0589715,0 0.110047,0.033084 0.158324,0.0963535 0.0321845,0.0481767 0.045578,0.0933549 0.045578,0.132536 0,0.231888 -0.24948,0.6205 -0.753836,1.16564 -0.391811,0.430692 -0.813008,0.780123 -1.25839,1.05119 -0.445285,0.271069 -0.858486,0.406604 -1.2395,0.406604 -0.39441,0 -0.702861,-0.153626 -0.928352,-0.460878 -0.152826,-0.210798 -0.22799,-0.499959 -0.22799,-0.864383 0,-0.99392 0.415899,-1.96685 1.2503,-2.92159 0.676074,-0.774126 1.26369,-1.16264 1.76805,-1.16264 0.136834,0 0.260174,0.0451782 0.370221,0.141532 0.134135,0.12354 0.203902,0.283163 0.203902,0.484966 0,0.31025 -0.128838,0.692766 -0.386413,1.14755 -0.528445,0.939746 -1.32536,1.59033 -2.38775,1.94876zm0.171717 -0.689767c0.367523,-0.138533 0.654584,-0.298156 0.863883,-0.47587 0.367523,-0.316247 0.657383,-0.674674 0.874578,-1.07528 0.0778624,-0.141532 0.115444,-0.268071 0.115444,-0.379517 0,-0.117443 -0.0482767,-0.177714 -0.147529,-0.177714 -0.136834,0 -0.330041,0.114445 -0.582219,0.346433 -0.450782,0.403605 -0.826401,0.99392 -1.12416,1.76195zm7.2527 -0.201803c-0.0160922,-0.180713 -0.0240884,-0.358427 -0.0240884,-0.530044 0,-0.156624 0.00529744,-0.355428 0.0159923,-0.590415 0.0133935,-0.39451 0.0214896,-0.623499 0.0214896,-0.689667 0.00539739,-0.370521 0.0401806,-0.617502 0.101851,-0.740942 0.0806611,-0.156624 0.193207,-0.237985 0.338137,-0.237985 0.0965534,0 0.174416,0.0391811 0.236086,0.114445 0.0697663,0.0963535 0.101951,0.201803 0.101951,0.319246 0,0.0813607 -0.00799614,0.198804 -0.0214896,0.35243 -0.0160922,0.147629 -0.0240884,0.33134 -0.0240884,0.557231 0,0.0873578 0.0026987,0.225891 0.00799614,0.412601 0.104749,-0.135535 0.322045,-0.406604 0.651985,-0.819205 0.51785,-0.659682 0.871979,-0.987923 1.05979,-0.987923 0.0589715,0 0.107248,0.0270869 0.150227,0.0873578 0.0429793,0.0661681 0.0643689,0.135535 0.0643689,0.210798 0,0.147529 -0.0830599,0.301155 -0.244082,0.460778 -0.659981,0.656683 -1.22351,1.35844 -1.69028,2.09939 -0.00539739,0.0933549 -0.00799614,0.159623 -0.00799614,0.192807 0,0.448783 0.00799614,0.755935 0.0240884,0.927652 0.0240884,0.234887 0.115444,0.35243 0.265572,0.35243 0.158324,0 0.362225,-0.180713 0.614403,-0.545237 0.308551,-0.448783 0.533942,-0.810209 0.676174,-1.08728 0.136734,-0.259075 0.270869,-0.388512 0.407803,-0.388512 0.110047,0 0.16622,0.0752637 0.16622,0.222792 0,0.268071 -0.254777,0.789219 -0.764531,1.56025 -0.287061,0.436689 -0.544637,0.768029 -0.770028,0.996919 -0.238785,0.240984 -0.469573,0.361426 -0.689567,0.361426 -0.31115,0 -0.501658,-0.216795 -0.574123,-0.653584 -0.0429793,-0.216795 -0.0750638,-0.548135 -0.0938547,-0.996919 -0.107348,0.135535 -0.319246,0.430692 -0.638592,0.882474 -0.480168,0.689767 -0.815606,1.0331 -0.998018,1.0331 -0.161022,0 -0.244182,-0.153626 -0.244182,-0.457779 0,-0.111446 0.0348832,-0.213897 0.101951,-0.31025 0.0429793,-0.0632695 0.155625,-0.183711 0.338137,-0.361426 0.340736,-0.340336 0.64119,-0.68367 0.895967,-1.0331 0.273668,-0.364424 0.453481,-0.602409 0.544737,-0.713855zm8.36076 -2.88541c0.413101,0 0.619801,0.243882 0.619801,0.731847 0,0.430692 -0.150327,0.861484 -0.448184,1.29817 -0.230689,0.328341 -0.431891,0.493962 -0.603609,0.493962 -0.147529,0 -0.222692,-0.0933549 -0.222692,-0.283163 0,-0.099352 0.0214896,-0.177614 0.0643689,-0.237885 0.0160922,-0.0240884 0.0778624,-0.0903564 0.187809,-0.201803 0.0939546,-0.099452 0.193207,-0.249979 0.292459,-0.451782 0.0670676,-0.135535 0.101951,-0.243982 0.101951,-0.325343 0,-0.0933549 -0.0482767,-0.141532 -0.142231,-0.141532 -0.109947,0 -0.278965,0.0963535 -0.504357,0.292159 -0.354129,0.31025 -0.710957,0.798215 -1.06788,1.46379 -0.367523,0.695764 -0.549935,1.2409 -0.549935,1.64151 0,0.129537 0.0348832,0.243982 0.101951,0.343434 0.0992521,0.153526 0.233487,0.22889 0.399807,0.22889 0.329941,0 0.721652,-0.22889 1.17243,-0.686768 0.383615,-0.39451 0.705559,-0.789119 0.965834,-1.18373 0.136834,-0.216795 0.254877,-0.325243 0.354229,-0.325243 0.0589715,0 0.109947,0.0300855 0.158224,0.0873578 0.0402806,0.0602709 0.0617702,0.117443 0.0617702,0.177714 0,0.216795 -0.24958,0.64149 -0.74594,1.27099 -0.791418,0.987923 -1.51047,1.48188 -2.15436,1.48188 -0.386413,0 -0.68427,-0.156624 -0.888071,-0.466775 -0.147529,-0.231988 -0.219994,-0.500059 -0.219994,-0.813307 0,-0.611405 0.225291,-1.31916 0.676074,-2.12637 0.43469,-0.771128 0.939047,-1.39153 1.51057,-1.8614 0.335238,-0.271069 0.627697,-0.406604 0.879975,-0.406604zm4.72262 3.77698l0 0.159623c0,0.129537 0.0267871,0.240984 0.0857586,0.334339 0.131536,0.216895 0.346233,0.325243 0.643989,0.325243 0.654584,0 1.41122,-0.563228 2.2724,-1.69268 0.150327,-0.195805 0.279065,-0.292159 0.383715,-0.292159 0.0589715,0 0.110047,0.033084 0.158224,0.0963535 0.0322844,0.0481767 0.0456779,0.0933549 0.0456779,0.132536 0,0.231888 -0.24948,0.6205 -0.753936,1.16564 -0.391711,0.430692 -0.812908,0.780123 -1.25829,1.05119 -0.445285,0.271069 -0.858486,0.406604 -1.2395,0.406604 -0.39441,0 -0.702961,-0.153626 -0.928352,-0.460878 -0.152826,-0.210798 -0.22799,-0.499959 -0.22799,-0.864383 0,-0.99392 0.415899,-1.96685 1.2503,-2.92159 0.675974,-0.774126 1.26359,-1.16264 1.76805,-1.16264 0.136834,0 0.260174,0.0451782 0.370121,0.141532 0.134235,0.12354 0.204002,0.283163 0.204002,0.484966 0,0.31025 -0.128838,0.692766 -0.386413,1.14755 -0.528445,0.939746 -1.32536,1.59033 -2.38775,1.94876zm0.171717 -0.689767c0.367523,-0.138533 0.654584,-0.298156 0.863883,-0.47587 0.367523,-0.316247 0.657383,-0.674674 0.874578,-1.07528 0.0778624,-0.141532 0.115444,-0.268071 0.115444,-0.379517 0,-0.117443 -0.0482767,-0.177714 -0.147529,-0.177714 -0.136934,0 -0.330041,0.114445 -0.582219,0.346433 -0.450782,0.403605 -0.826401,0.99392 -1.12416,1.76195zm7.47269 -0.545137c-0.158324,0.457779 -0.276367,0.8283 -0.354229,1.11136 -0.0804612,0.283163 -0.118043,0.478969 -0.118043,0.590415 0,0.147529 0.0616702,0.219794 0.187909,0.219794 0.187709,0 0.431891,-0.198704 0.732346,-0.599311 0.139533,-0.192807 0.348832,-0.542138 0.627897,-1.04819 0.109947,-0.201803 0.225291,-0.301155 0.346033,-0.301155 0.136834,0 0.203902,0.0722651 0.203902,0.219794 0,0.253078 -0.260274,0.765131 -0.778024,1.53616 -0.53934,0.80721 -1.041,1.20782 -1.50247,1.20782 -0.198504,0 -0.359526,-0.0933549 -0.485566,-0.280165 -0.0886572,-0.135535 -0.134235,-0.301155 -0.134235,-0.493962 0,-0.33134 0.0885572,-0.78612 0.26827,-1.37044 0.177114,-0.581319 0.442786,-1.28908 0.791518,-2.12647 0.901465,-2.12337 1.82172,-3.87333 2.76077,-5.24977 0.748539,-1.10547 1.37104,-1.6596 1.862,-1.6596 0.158224,0 0.287061,0.0692666 0.386314,0.204801 0.104649,0.135535 0.155625,0.292159 0.155625,0.466875 0,0.825202 -0.654584,2.19564 -1.96395,4.11132 -0.587516,0.855387 -1.29048,1.70778 -2.10608,2.56016 -0.214696,0.222892 -0.509754,0.524047 -0.879975,0.900565zm0.558031 -1.40362c1.08927,-1.04809 2.0632,-2.37036 2.92169,-3.96968 0.445385,-0.831399 0.668077,-1.37953 0.668077,-1.6506 0,-0.129537 -0.0482767,-0.195805 -0.147529,-0.195805 -0.28986,0 -0.813008,0.644589 -1.57224,1.93367 -0.630496,1.05719 -1.253,2.35236 -1.87,3.88243zm5.45237 1.40362c-0.158224,0.457779 -0.276267,0.8283 -0.354129,1.11136 -0.0804612,0.283163 -0.118043,0.478969 -0.118043,0.590415 0,0.147529 0.0616702,0.219794 0.187809,0.219794 0.187809,0 0.431891,-0.198704 0.732446,-0.599311 0.139533,-0.192807 0.348832,-0.542138 0.627797,-1.04819 0.110047,-0.201803 0.225391,-0.301155 0.346133,-0.301155 0.136834,0 0.203902,0.0722651 0.203902,0.219794 0,0.253078 -0.260274,0.765131 -0.778124,1.53616 -0.53924,0.80721 -1.0409,1.20782 -1.50237,1.20782 -0.198604,0 -0.359526,-0.0933549 -0.485666,-0.280165 -0.0885572,-0.135535 -0.134135,-0.301155 -0.134135,-0.493962 0,-0.33134 0.0885572,-0.78612 0.26827,-1.37044 0.177114,-0.581319 0.442786,-1.28908 0.791518,-2.12647 0.901465,-2.12337 1.82172,-3.87333 2.76077,-5.24977 0.748439,-1.10547 1.37104,-1.6596 1.8619,-1.6596 0.158324,0 0.287161,0.0692666 0.386314,0.204801 0.104749,0.135535 0.155625,0.292159 0.155625,0.466875 0,0.825202 -0.654584,2.19564 -1.96385,4.11132 -0.587516,0.855387 -1.29048,1.70778 -2.10608,2.56016 -0.214696,0.222892 -0.509854,0.524047 -0.880075,0.900565zm0.558131 -1.40362c1.08917,-1.04809 2.0631,-2.37036 2.92169,-3.96968 0.445385,-0.831399 0.668077,-1.37953 0.668077,-1.6506 0,-0.129537 -0.0482767,-0.195805 -0.147529,-0.195805 -0.28986,0 -0.813008,0.644589 -1.57224,1.93367 -0.630496,1.05719 -1.253,2.35236 -1.87,3.88243zm4.77629 2.63853l0 0.159623c0,0.129537 0.0267871,0.240984 0.0857586,0.334339 0.131536,0.216895 0.346233,0.325243 0.643889,0.325243 0.654684,0 1.41132,-0.563228 2.2725,-1.69268 0.150327,-0.195805 0.279065,-0.292159 0.383715,-0.292159 0.0589715,0 0.110047,0.033084 0.158224,0.0963535 0.0322844,0.0481767 0.045578,0.0933549 0.045578,0.132536 0,0.231888 -0.24938,0.6205 -0.753836,1.16564 -0.391711,0.430692 -0.812908,0.780123 -1.25829,1.05119 -0.445285,0.271069 -0.858486,0.406604 -1.2395,0.406604 -0.39441,0 -0.702961,-0.153626 -0.928352,-0.460878 -0.152826,-0.210798 -0.22799,-0.499959 -0.22799,-0.864383 0,-0.99392 0.415799,-1.96685 1.2503,-2.92159 0.675974,-0.774126 1.26359,-1.16264 1.76805,-1.16264 0.136834,0 0.260174,0.0451782 0.370121,0.141532 0.134235,0.12354 0.204002,0.283163 0.204002,0.484966 0,0.31025 -0.128838,0.692766 -0.386413,1.14755 -0.528445,0.939746 -1.32536,1.59033 -2.38775,1.94876zm0.171717 -0.689767c0.367523,-0.138533 0.654584,-0.298156 0.863883,-0.47587 0.367523,-0.316247 0.657383,-0.674674 0.874578,-1.07528 0.0778624,-0.141532 0.115444,-0.268071 0.115444,-0.379517 0,-0.117443 -0.0482767,-0.177714 -0.147529,-0.177714 -0.136934,0 -0.330141,0.114445 -0.582219,0.346433 -0.450782,0.403605 -0.826401,0.99392 -1.12416,1.76195zm7.63631 -0.64149c0.0670676,-0.0723651 0.134135,-0.141632 0.195905,-0.213897 1.09727,-1.19872 1.82972,-1.79813 2.20264,-1.79813 0.203902,0 0.305852,0.126539 0.305852,0.379517 0,0.174716 -0.091156,0.385514 -0.276367,0.626498 -1.00072,1.31017 -1.49978,2.46681 -1.49978,3.46673 0,0.322344 0.0778624,0.632495 0.236086,0.927752 0.072465,0.135535 0.110047,0.240884 0.110047,0.316247 0,0.0722651 -0.0321845,0.138533 -0.0938547,0.201803 -0.0698663,0.0842593 -0.150327,0.12344 -0.244182,0.12344 -0.214696,0 -0.397108,-0.150627 -0.541938,-0.457779 -0.142231,-0.28916 -0.214696,-0.638592 -0.214696,-1.05119 0,-0.792118 0.26827,-1.67169 0.802213,-2.63553 -0.710957,0.509054 -1.37364,1.41572 -1.98804,2.71679 -0.158224,0.31025 -0.324643,0.466875 -0.501658,0.466875 -0.0912559,0 -0.163721,-0.0360826 -0.219994,-0.105349 -0.0751637,-0.0813607 -0.110047,-0.189808 -0.110047,-0.319346 0,-0.316247 0.321945,-1.14755 0.965834,-2.49689 0.346133,-0.728848 0.617102,-1.25899 0.818305,-1.58733 0.198504,-0.322244 0.367623,-0.484866 0.509754,-0.484866 0.0670676,0 0.134135,0.0360826 0.195905,0.105449 0.0750638,0.0812608 0.109947,0.177614 0.109947,0.283063 0,0.129537 -0.0751637,0.313249 -0.22799,0.554232 -0.219994,0.361426 -0.397108,0.686669 -0.533942,0.981926zm8.0871 -2.44572c0.413101,0 0.619701,0.243882 0.619701,0.731847 0,0.430692 -0.150227,0.861484 -0.448084,1.29817 -0.230689,0.328341 -0.431891,0.493962 -0.603609,0.493962 -0.147529,0 -0.222692,-0.0933549 -0.222692,-0.283163 0,-0.099352 0.0214896,-0.177614 0.0643689,-0.237885 0.0160922,-0.0240884 0.0778624,-0.0903564 0.187809,-0.201803 0.0938547,-0.099452 0.193207,-0.249979 0.292459,-0.451782 0.0670676,-0.135535 0.101951,-0.243982 0.101951,-0.325343 0,-0.0933549 -0.0482767,-0.141532 -0.142231,-0.141532 -0.109947,0 -0.278965,0.0963535 -0.504357,0.292159 -0.354129,0.31025 -0.711057,0.798215 -1.06788,1.46379 -0.367523,0.695764 -0.549935,1.2409 -0.549935,1.64151 0,0.129537 0.0348832,0.243982 0.101951,0.343434 0.0992521,0.153526 0.233387,0.22889 0.399707,0.22889 0.330041,0 0.721752,-0.22889 1.17253,-0.686768 0.383615,-0.39451 0.705559,-0.789119 0.965834,-1.18373 0.136834,-0.216795 0.254877,-0.325243 0.354129,-0.325243 0.0590715,0 0.109947,0.0300855 0.158324,0.0873578 0.0402806,0.0602709 0.0616702,0.117443 0.0616702,0.177714 0,0.216795 -0.24948,0.64149 -0.74584,1.27099 -0.791418,0.987923 -1.51047,1.48188 -2.15436,1.48188 -0.386413,0 -0.68427,-0.156624 -0.888171,-0.466775 -0.147529,-0.231988 -0.219994,-0.500059 -0.219994,-0.813307 0,-0.611405 0.225391,-1.31916 0.676174,-2.12637 0.43469,-0.771128 0.939047,-1.39153 1.51057,-1.8614 0.335238,-0.271069 0.627697,-0.406604 0.879975,-0.406604zm4.72262 3.77698l0 0.159623c0,0.129537 0.0267871,0.240984 0.0857586,0.334339 0.131536,0.216895 0.346233,0.325243 0.643889,0.325243 0.654684,0 1.41132,-0.563228 2.2725,-1.69268 0.150327,-0.195805 0.279065,-0.292159 0.383615,-0.292159 0.0590715,0 0.110047,0.033084 0.158324,0.0963535 0.0322844,0.0481767 0.045578,0.0933549 0.045578,0.132536 0,0.231888 -0.24948,0.6205 -0.753836,1.16564 -0.391711,0.430692 -0.812908,0.780123 -1.25829,1.05119 -0.445385,0.271069 -0.858586,0.406604 -1.2395,0.406604 -0.39441,0 -0.702961,-0.153626 -0.928352,-0.460878 -0.152926,-0.210798 -0.22799,-0.499959 -0.22799,-0.864383 0,-0.99392 0.415799,-1.96685 1.2503,-2.92159 0.675974,-0.774126 1.26359,-1.16264 1.76795,-1.16264 0.136934,0 0.260274,0.0451782 0.370221,0.141532 0.134235,0.12354 0.204002,0.283163 0.204002,0.484966 0,0.31025 -0.128838,0.692766 -0.386413,1.14755 -0.528545,0.939746 -1.32536,1.59033 -2.38775,1.94876zm0.171717 -0.689767c0.367523,-0.138533 0.654584,-0.298156 0.863883,-0.47587 0.367523,-0.316247 0.657383,-0.674674 0.874578,-1.07528 0.0777625,-0.141532 0.115344,-0.268071 0.115344,-0.379517 0,-0.117443 -0.0481767,-0.177714 -0.147529,-0.177714 -0.136834,0 -0.330041,0.114445 -0.582119,0.346433 -0.450782,0.403605 -0.826401,0.99392 -1.12416,1.76195zm-91.7161 8.65132c0.0784621,-0.127239 0.259075,-0.436289 0.540639,-0.925753 0.240384,-0.418098 0.625298,-1.01941 1.15344,-1.80673 0.306452,-0.45588 0.584218,-0.837696 0.832098,-1.14665 0.148228,-0.18601 0.279065,-0.278366 0.39361,-0.278366 0.0659682,0 0.120842,0.0251878 0.164321,0.0769628 0.0386813,0.0419797 0.0585717,0.0936548 0.0585717,0.156624 0,0.0922555 -0.049776,0.239085 -0.149428,0.437689 -0.0199903,0.0419797 -0.119542,0.239085 -0.298956,0.594313 -0.321345,0.639091 -0.53944,1.09497 -0.653984,1.36904 -0.313848,0.748139 -0.543138,1.38583 -0.690067,1.91298 -0.0846591,0.313249 -0.127039,0.543937 -0.127039,0.692166 0,0.0321845 0.00249879,0.0671676 0.00739643,0.102151 0.012494,0.106249 0.0174916,0.169218 0.0174916,0.188809 0,0.0796615 -0.0261874,0.152326 -0.0796615,0.220893 -0.0461777,0.0629696 -0.0984525,0.0936548 -0.157024,0.0936548 -0.0684669,0 -0.12454,-0.0446784 -0.168119,-0.134235 -0.0360826,-0.0684669 -0.0547736,-0.163621 -0.0547736,-0.286662 0,-0.773327 0.574123,-2.29189 1.72267,-4.5559 -0.60041,0.720152 -1.26559,1.75355 -1.99544,3.0974 -0.160722,0.292259 -0.294058,0.489464 -0.398608,0.594313 -0.102251,0.100651 -0.199404,0.151027 -0.291559,0.151027 -0.0921555,0 -0.160722,-0.0447784 -0.204301,-0.135635 -0.0297856,-0.060171 -0.043579,-0.130037 -0.043579,-0.208399 0,-0.682371 0.361226,-1.75775 1.08378,-3.22464 -0.246781,0.281064 -0.482167,0.608306 -0.708858,0.978827 -0.411002,0.686669 -0.778424,1.39003 -1.10117,2.11018 -0.153226,0.346833 -0.339936,0.809709 -0.55923,1.38863 -0.109647,0.295058 -0.235486,0.443286 -0.378717,0.443286 -0.037382,0 -0.0671676,-0.0181912 -0.0921555,-0.0531743 -0.018691,-0.0251878 -0.0286862,-0.0544737 -0.0286862,-0.0908561 0,-0.051775 0.0448783,-0.193007 0.134535,-0.426494 0.193107,-0.510454 0.340136,-0.876777 0.442286,-1.10197 0.523147,-1.14385 1.14215,-2.21923 1.8572,-3.22744 0.298956,-0.420997 0.505756,-0.693665 0.620301,-0.819504 0.119542,-0.128638 0.218095,-0.193007 0.295257,-0.193007 0.0498759,0 0.0971531,0.0251878 0.143231,0.0741642 0.0560729,0.0573723 0.0834597,0.123041 0.0834597,0.197205 0,0.0810609 -0.0510753,0.216695 -0.153226,0.405504 -0.291459,0.534142 -0.560529,1.13545 -0.805911,1.80253 -0.211798,0.59991 -0.348832,1.11026 -0.409802,1.52706zm3.3134 0.602709c-0.0797615,0.158024 -0.159423,0.292259 -0.236686,0.401306 -0.153226,0.213997 -0.305153,0.320245 -0.45588,0.320245 -0.132036,0 -0.234287,-0.0699662 -0.306452,-0.209799 -0.0461777,-0.0894568 -0.0697663,-0.195706 -0.0697663,-0.318846 0,-0.303454 0.0846591,-0.637592 0.255377,-1.00402 0.189309,-0.406904 0.418598,-0.720152 0.686369,-0.938347 0.175615,-0.141232 0.343734,-0.212497 0.506955,-0.212497 0.102151,0 0.18681,0.0349831 0.255377,0.106249 0.0584718,0.0629696 0.0871579,0.134235 0.0871579,0.212597 0,0.060071 -0.0199903,0.14403 -0.0609706,0.250279 0.0359826,0.0573723 0.0546736,0.107648 0.0546736,0.151027 0,0.0573723 -0.0348832,0.152426 -0.102051,0.283863 -0.0710657,0.132836 -0.142031,0.31045 -0.211798,0.531343 -0.0759633,0.234987 -0.113345,0.423795 -0.113345,0.566427 0,0.114645 0.0298856,0.208299 0.0909561,0.282464 0.0174916,0.0195905 0.0671676,0.0502757 0.149528,0.0936548 0.0609706,0.0335838 0.0908561,0.0909561 0.0908561,0.172017 0,0.051775 -0.0161922,0.0950541 -0.0510753,0.127239 -0.0360826,0.0349831 -0.0784621,0.0531743 -0.127039,0.0531743 -0.132036,0 -0.244182,-0.0657682 -0.340036,-0.195805 -0.0772627,-0.107648 -0.115844,-0.240484 -0.115844,-0.402706 0,-0.0545737 0.00499759,-0.14403 0.0136934,-0.26987zm0.457079 -1.34805c-0.0298856,-0.060171 -0.0609706,-0.10355 -0.0958537,-0.132836 -0.0336837,-0.0293858 -0.0697663,-0.0433791 -0.108348,-0.0433791 -0.18561,0 -0.386114,0.181812 -0.602909,0.545337 -0.237985,0.401306 -0.357527,0.741142 -0.357527,1.01941 0,0.0685669 0.0111946,0.120342 0.0348832,0.156624 0.0223892,0.0349831 0.0572724,0.0531743 0.10345,0.0531743 0.117043,0 0.254077,-0.139832 0.409802,-0.418098 0.0871579,-0.152426 0.195506,-0.379017 0.323744,-0.675474 0.0860585,-0.194306 0.147029,-0.323044 0.18691,-0.385914 0.018691,-0.0321845 0.0548735,-0.0727649 0.105849,-0.118843zm2.0803 -0.696464c0.150727,0 0.264073,0.0307851 0.338736,0.0909561 0.0760633,0.060071 0.113445,0.151027 0.113445,0.274068 0,0.160822 -0.0535741,0.316047 -0.160722,0.467075 -0.102051,0.141232 -0.255277,0.255876 -0.459678,0.343934 -0.112046,0.0461777 -0.205501,0.0699662 -0.281464,0.0699662 -0.102151,0 -0.153126,-0.0503757 -0.153126,-0.152426 0,-0.0671676 0.0297856,-0.120242 0.0883573,-0.155225 0.0136934,-0.00839595 0.0971531,-0.0307851 0.24788,-0.0699662 0.0896567,-0.0208899 0.173216,-0.0698663 0.24788,-0.142631 0.0660681,-0.0628696 0.0983525,-0.131437 0.0983525,-0.205501 0,-0.0573723 -0.0135934,-0.099352 -0.043479,-0.127239 -0.0286862,-0.0265872 -0.0723651,-0.0405804 -0.130837,-0.0405804 -0.142031,0 -0.297756,0.0643689 -0.467174,0.193007 -0.198004,0.14403 -0.296457,0.316047 -0.296457,0.515951 0,0.142631 0.0647687,0.318846 0.194406,0.532843 0.143231,0.232088 0.214197,0.427893 0.214197,0.590115 0,0.240484 -0.0946543,0.427893 -0.283963,0.564927 -0.117143,0.0852588 -0.24918,0.127239 -0.397308,0.127239 -0.234287,0 -0.411102,-0.0950541 -0.533143,-0.282464 -0.0847591,-0.134235 -0.128438,-0.292259 -0.128438,-0.47547 0,-0.213897 0.0486765,-0.391511 0.147029,-0.536941 0.0622699,-0.0951541 0.128238,-0.14403 0.196805,-0.14403 0.0609706,0 0.0909561,0.0279865 0.0909561,0.0824602 0,0.0223892 -0.0111946,0.0545737 -0.0323844,0.0978528 -0.0560729,0.117543 -0.0847591,0.255976 -0.0847591,0.414 0,0.134235 0.0423795,0.247481 0.128338,0.339736 0.0747639,0.0825601 0.161922,0.123141 0.259075,0.123141 0.0946543,0 0.169418,-0.0349831 0.221793,-0.106349 0.0447784,-0.060071 0.0659682,-0.135635 0.0659682,-0.229289 0,-0.114645 -0.0585717,-0.262873 -0.174416,-0.446085 -0.160622,-0.251678 -0.241583,-0.479668 -0.241583,-0.68387 0,-0.274068 0.133236,-0.515951 0.398608,-0.72575 0.257776,-0.202702 0.529344,-0.303454 0.817106,-0.303454zm1.56085 0.0825601c-0.158224,0.275467 -0.303953,0.584518 -0.437289,0.925753 -0.193107,0.486565 -0.288961,0.84879 -0.288961,1.08927 0,0.0685669 0.0136934,0.120242 0.0386813,0.155225 0.0260874,0.0363824 0.0634694,0.0545737 0.114545,0.0545737 0.122041,0 0.26907,-0.128638 0.442187,-0.386014 0.109647,-0.157924 0.2068,-0.315947 0.291459,-0.475371 0.0460778,-0.0895568 0.0959537,-0.134235 0.149428,-0.134235 0.0324843,0 0.0586717,0.0110946 0.0810609,0.0362825 0.018691,0.0251878 0.0285862,0.0489764 0.0285862,0.0741642 0,0.100651 -0.117043,0.325843 -0.353729,0.675374 -0.281564,0.420897 -0.540639,0.630696 -0.773527,0.630696 -0.12454,0 -0.22789,-0.064269 -0.31015,-0.191607 -0.0510753,-0.0824602 -0.0772627,-0.198504 -0.0772627,-0.348132 0,-0.33144 0.0859585,-0.716054 0.256576,-1.15654 0.0411801,-0.109047 0.155725,-0.37192 0.342535,-0.790019 -0.0659682,0.0195905 -0.115844,0.0292859 -0.149428,0.0292859 -0.0510753,0 -0.0959537,-0.0138933 -0.135834,-0.0418798 -0.0534742,-0.0377818 -0.0796615,-0.0853588 -0.0796615,-0.142631 0,-0.0685669 0.0348832,-0.123041 0.105849,-0.16502 0.0199903,-0.00979527 0.109647,-0.0279865 0.270369,-0.0531743 0.0585717,-0.00979527 0.143231,-0.0363824 0.255277,-0.0768629 0.0847591,-0.172017 0.223092,-0.405604 0.416099,-0.700662 0.107048,-0.163621 0.180613,-0.271269 0.221793,-0.320245 0.0584718,-0.0684669 0.109547,-0.102051 0.154325,-0.102051 0.0311849,0 0.0623699,0.0195905 0.0947543,0.0573723 0.0285862,0.0349831 0.043579,0.0712656 0.043579,0.106249 0,0.0713655 -0.0684669,0.212597 -0.204301,0.422296 -0.0896567,0.137034 -0.156924,0.24758 -0.200603,0.33144 0.26907,-0.0810609 0.463476,-0.123041 0.57932,-0.123041 0.134535,0 0.201803,0.0628696 0.201803,0.188809 0,0.0628696 -0.0236886,0.109047 -0.0697663,0.139832 -0.0249879,0.0153926 -0.0871579,0.0292859 -0.189409,0.0404805 -0.0422796,-0.00279865 -0.225391,0.0489764 -0.551734,0.155225 -0.0897567,0.0307851 -0.178214,0.0615703 -0.266571,0.0951541zm0.774626 1.85141l0 0.0741642c0,0.060071 0.012494,0.111846 0.0399807,0.155225 0.0610705,0.100651 0.160622,0.151027 0.298956,0.151027 0.303953,0 0.655184,-0.261474 1.05499,-0.785921 0.0697663,-0.0908561 0.129537,-0.135635 0.178214,-0.135635 0.0272868,0 0.0509754,0.0153926 0.0734645,0.0447784 0.0148928,0.0223892 0.0211898,0.0432791 0.0211898,0.0614703 0,0.107748 -0.115844,0.288061 -0.350031,0.541239 -0.181912,0.199903 -0.377518,0.362125 -0.584218,0.487964 -0.2068,0.125939 -0.398608,0.188809 -0.575522,0.188809 -0.183112,0 -0.326342,-0.0712656 -0.430892,-0.213897 -0.0710657,-0.0979527 -0.105949,-0.232188 -0.105949,-0.401406 0,-0.461477 0.193107,-0.913159 0.58042,-1.35645 0.313948,-0.359327 0.586717,-0.539739 0.820904,-0.539739 0.0634694,0 0.120842,0.0209899 0.171917,0.0656683 0.0622699,0.0573723 0.0946543,0.131536 0.0946543,0.225191 0,0.14403 -0.0597711,0.321645 -0.179413,0.532743 -0.245382,0.436389 -0.615303,0.738344 -1.10866,0.904763zm0.0798614 -0.320145c0.170618,-0.0643689 0.303953,-0.138533 0.401006,-0.220993 0.170718,-0.146829 0.305253,-0.313249 0.406104,-0.499259 0.0361825,-0.0656683 0.0535741,-0.12444 0.0535741,-0.176115 0,-0.0545737 -0.0223892,-0.0825601 -0.0684669,-0.0825601 -0.0635693,0 -0.153226,0.0531743 -0.270369,0.160822 -0.209199,0.18741 -0.383615,0.461477 -0.521848,0.818105zm2.34927 -0.240584c0.239185,-0.286662 0.513252,-0.567726 0.824602,-0.840394 0.112146,-0.0979527 0.231688,-0.190208 0.358727,-0.274068 0.0622699,-0.0419797 0.10345,-0.0615703 0.119642,-0.0615703 0.0360826,0 0.0734645,0.0293858 0.109547,0.0894568 0.0224891,0.0335838 0.0323844,0.0629696 0.0323844,0.0909561 0,0.0488764 -0.0460778,0.116044 -0.138233,0.199903 -0.24788,0.220993 -0.37242,0.388812 -0.37242,0.500658 0,0.0629696 0.0322844,0.0936548 0.0946543,0.0936548 0.104649,0 0.285262,-0.0964534 0.540639,-0.29086 0.043579,-0.0320845 0.080861,-0.0488764 0.109547,-0.0488764 0.0199903,0 0.0386813,0.0111946 0.0585717,0.0321845 0.0210898,0.0250879 0.0323844,0.0502757 0.0323844,0.0782622 0,0.0824602 -0.102151,0.207 -0.306452,0.377518 -0.214297,0.179014 -0.417299,0.26997 -0.609106,0.26997 -0.0784621,0 -0.149528,-0.0237885 -0.215496,-0.0699662 -0.0560729,-0.0377818 -0.0834597,-0.106249 -0.0834597,-0.204101 0,-0.0685669 0.024888,-0.146929 0.0759633,-0.233587 -0.191807,0.152426 -0.418498,0.4139 -0.678872,0.785921 -0.150727,0.229289 -0.300155,0.511753 -0.448384,0.84879 -0.0560729,0.12444 -0.125839,0.18741 -0.208,0.18741 -0.0896567,0 -0.135834,-0.047577 -0.135834,-0.142631 0,-0.0937547 0.0709657,-0.341235 0.211798,-0.74534 0.209299,-0.60131 0.428493,-1.06698 0.657682,-1.39703 0.140732,-0.205501 0.259075,-0.307651 0.353729,-0.307651 0.0311849,0 0.0610705,0.0111946 0.0872579,0.0321845 0.0323844,0.0279865 0.0472772,0.0615703 0.0472772,0.102051 0,0.0419797 -0.0236886,0.099352 -0.0722651,0.173416 -0.00999517,0.0125939 -0.074664,0.104849 -0.194306,0.274068 -0.108348,0.160822 -0.193107,0.320245 -0.251579,0.479668zm2.57716 -1.10607c0.0411801,0 0.0747639,0.0166919 0.102251,0.0530744 0.018691,0.0293858 0.0285862,0.060171 0.0285862,0.0895568 0,0.0488764 -0.0348832,0.131437 -0.105849,0.246081 -0.252878,0.439088 -0.432291,0.801313 -0.53944,1.08518 -0.114545,0.292259 -0.215396,0.592914 -0.303853,0.901965 -0.0385814,0.135635 -0.0996519,0.204101 -0.181912,0.204101 -0.0485765,0 -0.0871579,-0.0209899 -0.117043,-0.0656683 -0.0261874,-0.0349831 -0.0398807,-0.0727649 -0.0398807,-0.114745 0,-0.0810609 0.0772627,-0.355129 0.232888,-0.819404 0.122041,-0.365024 0.318946,-0.769129 0.591714,-1.21241 0.0871579,-0.14403 0.153226,-0.241883 0.196805,-0.29086 0.043579,-0.051775 0.0897567,-0.0768629 0.135734,-0.0768629zm0.692566 -1.52007c0.109647,0 0.164521,0.0628696 0.164521,0.18731 0,0.114745 -0.0536741,0.241983 -0.160722,0.381816 -0.102151,0.134235 -0.200503,0.200003 -0.295257,0.200003 -0.0459778,0 -0.0834597,-0.0181912 -0.113345,-0.0573723 -0.0286862,-0.0349831 -0.043479,-0.0783622 -0.043479,-0.130037 0,-0.131437 0.0646688,-0.271269 0.193007,-0.418098 0.0946543,-0.109147 0.180613,-0.163621 0.255277,-0.163621zm0.0113945 2.56886c0.030985,-0.0335838 0.06217,-0.0657682 0.0908561,-0.099352 0.509454,-0.556531 0.84949,-0.834797 1.02261,-0.834797 0.0946543,0 0.142031,0.0586717 0.142031,0.176215 0,0.0810609 -0.0423795,0.178914 -0.128238,0.29086 -0.464576,0.608306 -0.696364,1.14525 -0.696364,1.60952 0,0.149628 0.0361825,0.293658 0.109547,0.430692 0.0336837,0.0629696 0.0511753,0.111846 0.0511753,0.146829 0,0.0335838 -0.0149928,0.0643689 -0.0436789,0.0936548 -0.0322844,0.0391811 -0.0696664,0.0573723 -0.113345,0.0573723 -0.0995519,0 -0.184311,-0.0699662 -0.251579,-0.212597 -0.0659682,-0.134235 -0.0996519,-0.296457 -0.0996519,-0.487964 0,-0.367822 0.12454,-0.776125 0.37242,-1.22361 -0.330041,0.236286 -0.637692,0.657183 -0.922954,1.26129 -0.0734645,0.14403 -0.150727,0.216795 -0.232888,0.216795 -0.0423795,0 -0.0760633,-0.0167919 -0.102151,-0.0489764 -0.0348832,-0.0376818 -0.0510753,-0.0880575 -0.0510753,-0.148228 0,-0.146829 0.149428,-0.532743 0.448384,-1.15924 0.160622,-0.338437 0.286462,-0.584518 0.379917,-0.736944 0.0921555,-0.149628 0.170618,-0.225191 0.236686,-0.225191 0.0311849,0 0.0622699,0.0167919 0.0908561,0.0489764 0.0349831,0.0377818 0.0511753,0.0825601 0.0511753,0.131437 0,0.060171 -0.0349831,0.14543 -0.105849,0.257376 -0.102251,0.167719 -0.184411,0.318746 -0.24788,0.45588z"/>
   <path id="_119103008" class="fil5" d="M18.4431 18.7197c0.260274,-0.213897 0.453381,-0.406904 0.58042,-0.581719 0.18691,-0.254477 0.320245,-0.461477 0.397408,-0.619501 0.0385814,-0.0712656 0.0796615,-0.106249 0.120842,-0.106249 0.0585717,0 0.0872579,0.0307851 0.0872579,0.0937547 0,0.0740642 -0.0461777,0.197105 -0.138333,0.369122 -0.287761,0.524447 -0.717454,0.981726 -1.29178,1.37184 -0.267771,0.629296 -0.464576,1.05439 -0.591614,1.27948 -0.335138,0.588716 -0.651485,0.883873 -0.949142,0.883873 -0.155725,0 -0.266571,-0.0671676 -0.335138,-0.204201 -0.0385814,-0.0797615 -0.0585717,-0.169218 -0.0585717,-0.271269 0,-0.427893 0.245382,-0.839095 0.737444,-1.23201 0.0772627,-0.0657682 0.392311,-0.271269 0.945444,-0.615303 0.107048,-0.253078 0.189309,-0.453081 0.24788,-0.598511 -0.255377,0.300655 -0.467075,0.451682 -0.635293,0.451682 -0.104649,0 -0.18561,-0.060171 -0.244082,-0.180413 -0.0374819,-0.0796615 -0.0548735,-0.160822 -0.0548735,-0.246081 0,-0.197205 0.0710657,-0.448883 0.215496,-0.757934 0.204301,-0.444685 0.449683,-0.797115 0.736145,-1.05719 0.241683,-0.215396 0.45468,-0.323044 0.638992,-0.323044 0.0947543,0 0.176915,0.0391811 0.244282,0.118843 0.0472772,0.051775 0.0696664,0.128638 0.0696664,0.229389 0,0.125839 -0.037382,0.281064 -0.113345,0.467075 0.055973,0.060071 0.0846591,0.104849 0.0846591,0.134235 0,0.0195905 -0.012394,0.0474771 -0.037382,0.0824602 -0.0646688,0.100751 -0.170618,0.29086 -0.316347,0.569125 -0.129537,0.243383 -0.242883,0.490863 -0.340036,0.742542zm-0.024888 -0.946643c-0.0348832,-0.0419797 -0.0510753,-0.0699662 -0.0510753,-0.0867581 0,-0.0236886 0.0173916,-0.055873 0.0535741,-0.0936548 0.122041,-0.131437 0.220494,-0.26847 0.296357,-0.409702 0.0610705,-0.111946 0.091056,-0.200003 0.091056,-0.262973 0,-0.0726649 -0.0299855,-0.110447 -0.091056,-0.110447 -0.10455,0 -0.254077,0.111846 -0.449583,0.337037 -0.230489,0.264272 -0.411102,0.560729 -0.53934,0.887971 -0.0635693,0.163621 -0.0947543,0.28946 -0.0947543,0.377618 0,0.0488764 0.0086958,0.0852588 0.0286862,0.110447 0.0198904,0.0237885 0.0473771,0.0363824 0.0834597,0.0363824 0.0859585,0 0.205501,-0.0979527 0.358727,-0.295058 0.0971531,-0.125939 0.179413,-0.24758 0.24788,-0.367822 0.0460778,-0.0796615 0.0685669,-0.120242 0.0660681,-0.123041zm-0.690067 1.78994c-0.321445,0.152426 -0.605408,0.384514 -0.850789,0.696364 -0.114645,0.14543 -0.195606,0.297856 -0.244182,0.458679 -0.0149928,0.0489764 -0.0223892,0.0909561 -0.0223892,0.123041 0,0.0363824 0.00739643,0.0671676 0.0223892,0.0937547 0.0261874,0.0502757 0.0647687,0.0740642 0.113345,0.0740642 0.150727,0 0.326442,-0.181812 0.529444,-0.543937 0.174416,-0.314648 0.325143,-0.615303 0.452182,-0.901965zm4.40078 -1.8557c0.204301,-0.240484 0.384914,-0.429293 0.540639,-0.564927 0.235386,-0.205601 0.39361,-0.307651 0.473272,-0.307651 0.0398807,0 0.0735645,0.0167919 0.102251,0.0489764 0.0272868,0.0307851 0.0410802,0.0628696 0.0410802,0.0978528 0,0.051775 -0.0423795,0.137034 -0.128338,0.254477 -0.130837,0.18601 -0.222992,0.344034 -0.274068,0.47547 0.569325,-0.64189 0.959137,-0.963435 1.16844,-0.963435 0.043579,0 0.0809609,0.0153926 0.113445,0.0460778 0.0334838,0.0321845 0.0509754,0.0727649 0.0509754,0.121741 0,0.0768629 -0.0522748,0.174716 -0.156924,0.295058 -0.459678,0.532743 -0.690067,0.970432 -0.690067,1.31167 0,0.139832 0.0223892,0.239085 0.0659682,0.299256l0.0946543 0.134235c0.0199903,0.0251878 0.0286862,0.055973 0.0286862,0.0950541 0,0.0433791 -0.0149928,0.0839595 -0.0472772,0.123041 -0.0361825,0.0433791 -0.0772627,0.0657682 -0.12344,0.0657682 -0.080861,0 -0.154325,-0.0573723 -0.222892,-0.172017 -0.0821603,-0.137034 -0.12454,-0.297856 -0.12454,-0.483866 0,-0.24888 0.0635693,-0.500558 0.190608,-0.753736 0.043479,-0.0908561 0.117043,-0.211098 0.219194,-0.360726 -0.2068,0.174816 -0.417299,0.4153 -0.631495,0.721552 -0.14583,0.207 -0.277866,0.439088 -0.394909,0.696364 -0.0560729,0.123141 -0.120842,0.183212 -0.196805,0.183212 -0.0822603,0 -0.12464,-0.051775 -0.12464,-0.155225 0,-0.111846 0.0685669,-0.342635 0.205601,-0.692166 0.0771627,-0.200003 0.173116,-0.409702 0.287661,-0.630696 -0.415899,0.360826 -0.728648,0.84879 -0.937947,1.46689 -0.0509754,0.135635 -0.119542,0.204201 -0.204201,0.204201 -0.0386813,0 -0.0710657,-0.0167919 -0.0946543,-0.0489764 -0.0274867,-0.0321845 -0.0398807,-0.0726649 -0.0398807,-0.118843 0,-0.160822 0.0796615,-0.451682 0.240384,-0.872579 0.168119,-0.444685 0.357427,-0.844692 0.569225,-1.19982 0.14573,-0.24898 0.259075,-0.37342 0.338836,-0.37342 0.0734645,0 0.109647,0.0433791 0.109647,0.131437 0,0.0377818 -0.0448783,0.132936 -0.134535,0.286762 -0.158224,0.286662 -0.262773,0.499159 -0.313948,0.638992zm3.43424 -1.27808c0.199304,0 0.298956,0.135635 0.298956,0.409702 0,0.363624 -0.149528,0.823702 -0.448483,1.38023 -0.326243,0.604108 -0.64149,0.906163 -0.945444,0.906163 -0.140732,0 -0.244082,-0.0741642 -0.31005,-0.222393 -0.0336837,-0.0726649 -0.0511753,-0.162222 -0.0511753,-0.265672 0,-0.349631 0.107148,-0.729948 0.321445,-1.13965 0.199304,-0.379017 0.433391,-0.674075 0.70376,-0.883773 0.158224,-0.123141 0.301454,-0.184611 0.430992,-0.184611zm-0.379917 1.54795c-0.0610705,-0.0544737 -0.0909561,-0.0964534 -0.0909561,-0.127239 0,-0.0209899 0.0385814,-0.0810609 0.117143,-0.179014 0.219194,-0.276866 0.327542,-0.499159 0.327542,-0.668377 0,-0.0223892 -0.00499759,-0.0433791 -0.0174916,-0.0657682 -0.0197904,-0.0404805 -0.049776,-0.0614703 -0.0908561,-0.0614703 -0.0784621,0 -0.193107,0.0852588 -0.343734,0.254477 -0.194406,0.218195 -0.342635,0.443286 -0.444785,0.675474 -0.119542,0.265672 -0.179413,0.485166 -0.179413,0.659981 0,0.0461777 0.0112945,0.0867581 0.0336837,0.123041 0.0311849,0.0489764 0.0710657,0.0741642 0.119542,0.0741642 0.117143,0 0.242883,-0.0992521 0.376218,-0.295058 0.0585717,-0.0825601 0.105949,-0.167819 0.142031,-0.254477 0.037382,-0.0881574 0.0535741,-0.132936 0.0510753,-0.135734zm2.05151 -0.0236886c-0.148128,0.286662 -0.276467,0.499159 -0.382415,0.638992 -0.260274,0.344034 -0.47707,0.516051 -0.650186,0.516051 -0.104649,0 -0.184311,-0.0643689 -0.240384,-0.193007 -0.0398807,-0.0838595 -0.0585717,-0.173416 -0.0585717,-0.265672 0,-0.180413 0.0685669,-0.441887 0.208,-0.783122 0.12334,-0.297856 0.22799,-0.532743 0.313948,-0.70476 0.0634694,-0.123041 0.100851,-0.202802 0.113345,-0.241983 0.0286862,-0.0726649 0.0547736,-0.128638 0.0759633,-0.167719 0.0311849,-0.0573723 0.0760633,-0.0853588 0.132036,-0.0853588 0.0286862,0 0.0548735,0.0139932 0.0760633,0.0405804 0.024788,0.0321845 0.0359826,0.0712656 0.0359826,0.114645 0,0.123041 -0.0983525,0.397108 -0.295058,0.823702 -0.196905,0.420897 -0.295257,0.699162 -0.295257,0.836196 0,0.0866582 0.0298856,0.130037 0.0908561,0.130037 0.104649,0 0.252878,-0.152426 0.444785,-0.458679 0.0858586,-0.135635 0.174316,-0.309051 0.266571,-0.520149 -0.00249879,-0.0685669 -0.00379817,-0.120242 -0.00379817,-0.155225 0,-0.205601 0.0347832,-0.383215 0.102151,-0.532843 0.0883573,-0.194306 0.205501,-0.29086 0.354929,-0.29086 0.0847591,0 0.127039,0.0573723 0.127039,0.172017 0,0.183212 -0.0846591,0.451682 -0.255277,0.80691 0.0485765,0.0111946 0.0872579,0.0167919 0.117043,0.0167919 0.0797615,0 0.184411,-0.0573723 0.313948,-0.172017 0.102151,-0.0937547 0.168219,-0.139832 0.200603,-0.139832 0.0260874,0 0.0547736,0.0181912 0.0833598,0.0530744 0.0224891,0.0307851 0.0336837,0.060171 0.0336837,0.0909561 0,0.0978528 -0.0610705,0.208299 -0.183112,0.33144 -0.140732,0.139832 -0.301454,0.208299 -0.482067,0.208299 -0.0697663,0 -0.151927,-0.0223892 -0.244182,-0.0684669zm1.67909 -1.33546c0.0410802,0 0.0747639,0.0166919 0.102151,0.0530744 0.0187909,0.0293858 0.0285862,0.060171 0.0285862,0.0895568 0,0.0488764 -0.0347832,0.131437 -0.105849,0.246081 -0.252778,0.439088 -0.432191,0.801313 -0.53934,1.08518 -0.114545,0.292259 -0.215496,0.592914 -0.303853,0.901965 -0.0386813,0.135635 -0.0997518,0.204101 -0.181912,0.204101 -0.0485765,0 -0.0871579,-0.0209899 -0.117043,-0.0656683 -0.0261874,-0.0349831 -0.0398807,-0.0727649 -0.0398807,-0.114745 0,-0.0810609 0.0772627,-0.355129 0.232888,-0.819404 0.122041,-0.365024 0.318946,-0.769129 0.591714,-1.21241 0.0871579,-0.14403 0.153226,-0.241883 0.196705,-0.29086 0.0436789,-0.051775 0.0897567,-0.0768629 0.135834,-0.0768629zm0.692566 -1.52007c0.109647,0 0.164421,0.0628696 0.164421,0.18731 0,0.114745 -0.0535741,0.241983 -0.160622,0.381816 -0.102151,0.134235 -0.200503,0.200003 -0.295257,0.200003 -0.0460778,0 -0.0834597,-0.0181912 -0.113345,-0.0573723 -0.0286862,-0.0349831 -0.043579,-0.0783622 -0.043579,-0.130037 0,-0.131437 0.0647687,-0.271269 0.193007,-0.418098 0.0946543,-0.109147 0.180713,-0.163621 0.255377,-0.163621zm0.0112945 2.56886c0.031085,-0.0335838 0.0622699,-0.0657682 0.0909561,-0.099352 0.509454,-0.556531 0.84939,-0.834797 1.02261,-0.834797 0.0946543,0 0.142031,0.0586717 0.142031,0.176215 0,0.0810609 -0.0423795,0.178914 -0.128338,0.29086 -0.464576,0.608306 -0.696264,1.14525 -0.696264,1.60952 0,0.149628 0.0360826,0.293658 0.109547,0.430692 0.0336837,0.0629696 0.0510753,0.111846 0.0510753,0.146829 0,0.0335838 -0.0148928,0.0643689 -0.043579,0.0936548 -0.0322844,0.0391811 -0.0697663,0.0573723 -0.113345,0.0573723 -0.0996519,0 -0.184311,-0.0699662 -0.251579,-0.212597 -0.0659682,-0.134235 -0.0996519,-0.296457 -0.0996519,-0.487964 0,-0.367822 0.12454,-0.776125 0.37242,-1.22361 -0.330041,0.236286 -0.637792,0.657183 -0.923054,1.26129 -0.0733646,0.14403 -0.150727,0.216795 -0.232888,0.216795 -0.0423795,0 -0.0760633,-0.0167919 -0.102151,-0.0489764 -0.0348832,-0.0376818 -0.0510753,-0.0880575 -0.0510753,-0.148228 0,-0.146829 0.149528,-0.532743 0.448483,-1.15924 0.160622,-0.338437 0.286462,-0.584518 0.379917,-0.736944 0.0921555,-0.149628 0.170618,-0.225191 0.236586,-0.225191 0.0311849,0 0.0622699,0.0167919 0.0909561,0.0489764 0.0348832,0.0377818 0.0510753,0.0825601 0.0510753,0.131437 0,0.060171 -0.0348832,0.14543 -0.105849,0.257376 -0.102151,0.167719 -0.184411,0.318746 -0.24788,0.45588zm2.33927 1.05289c0.260374,-0.213897 0.453481,-0.406904 0.58052,-0.581719 0.18691,-0.254477 0.320145,-0.461477 0.397308,-0.619501 0.0386813,-0.0712656 0.0797615,-0.106249 0.120842,-0.106249 0.0585717,0 0.0872579,0.0307851 0.0872579,0.0937547 0,0.0740642 -0.0460778,0.197105 -0.138233,0.369122 -0.287761,0.524447 -0.717554,0.981726 -1.29178,1.37184 -0.267871,0.629296 -0.464576,1.05439 -0.591614,1.27948 -0.335138,0.588716 -0.651485,0.883873 -0.949242,0.883873 -0.155725,0 -0.266571,-0.0671676 -0.335138,-0.204201 -0.0384814,-0.0797615 -0.0584718,-0.169218 -0.0584718,-0.271269 0,-0.427893 0.245382,-0.839095 0.737344,-1.23201 0.0773627,-0.0657682 0.392411,-0.271269 0.945444,-0.615303 0.107148,-0.253078 0.189409,-0.453081 0.24788,-0.598511 -0.255277,0.300655 -0.467075,0.451682 -0.635193,0.451682 -0.104649,0 -0.18571,-0.060171 -0.244182,-0.180413 -0.037382,-0.0796615 -0.0548735,-0.160822 -0.0548735,-0.246081 0,-0.197205 0.0710657,-0.448883 0.215596,-0.757934 0.204201,-0.444685 0.449583,-0.797115 0.736145,-1.05719 0.241583,-0.215396 0.45468,-0.323044 0.638992,-0.323044 0.0947543,0 0.176915,0.0391811 0.244182,0.118843 0.0472772,0.051775 0.0697663,0.128638 0.0697663,0.229389 0,0.125839 -0.037382,0.281064 -0.113345,0.467075 0.055973,0.060071 0.0846591,0.104849 0.0846591,0.134235 0,0.0195905 -0.012494,0.0474771 -0.037382,0.0824602 -0.0647687,0.100751 -0.170618,0.29086 -0.316347,0.569125 -0.129537,0.243383 -0.242883,0.490863 -0.340136,0.742542zm-0.024788 -0.946643c-0.0349831,-0.0419797 -0.0511753,-0.0699662 -0.0511753,-0.0867581 0,-0.0236886 0.0174916,-0.055873 0.0536741,-0.0936548 0.122041,-0.131437 0.220394,-0.26847 0.296357,-0.409702 0.0610705,-0.111946 0.0909561,-0.200003 0.0909561,-0.262973 0,-0.0726649 -0.0298856,-0.110447 -0.0909561,-0.110447 -0.104649,0 -0.254077,0.111846 -0.449583,0.337037 -0.230589,0.264272 -0.411102,0.560729 -0.53944,0.887971 -0.0635693,0.163621 -0.0946543,0.28946 -0.0946543,0.377618 0,0.0488764 0.0086958,0.0852588 0.0285862,0.110447 0.0199903,0.0237885 0.0473771,0.0363824 0.0835597,0.0363824 0.0859585,0 0.205501,-0.0979527 0.358727,-0.295058 0.0971531,-0.125939 0.179413,-0.24758 0.24788,-0.367822 0.0460778,-0.0796615 0.0685669,-0.120242 0.0660681,-0.123041zm-0.690167 1.78994c-0.321345,0.152426 -0.605408,0.384514 -0.850789,0.696364 -0.114545,0.14543 -0.195506,0.297856 -0.244082,0.458679 -0.0149928,0.0489764 -0.0224891,0.0909561 -0.0224891,0.123041 0,0.0363824 0.00749638,0.0671676 0.0224891,0.0937547 0.0261874,0.0502757 0.0646688,0.0740642 0.113345,0.0740642 0.150727,0 0.326342,-0.181812 0.529344,-0.543937 0.174416,-0.314648 0.325143,-0.615303 0.452182,-0.901965zm4.37469 -2.42483c0.37242,-0.901965 0.736245,-1.63471 1.09117,-2.20104 0.241683,-0.381816 0.440987,-0.660081 0.599111,-0.834897 0.109747,-0.123041 0.203102,-0.184511 0.281564,-0.184511 0.0286862,0 0.0535741,0.0110946 0.0759633,0.0320845 0.0335838,0.0279865 0.0510753,0.0643689 0.0510753,0.110547 0,0.060071 -0.0422796,0.146829 -0.127039,0.258675 -0.53814,0.687968 -1.02511,1.51307 -1.4599,2.47511 0.388612,-0.167819 0.660181,-0.250279 0.813407,-0.250279 0.112046,0 0.204301,0.0307851 0.277766,0.0936548 0.0747639,0.0657682 0.112146,0.141232 0.112146,0.225191 0,0.0447784 -0.012494,0.0838595 -0.0398807,0.118843 -0.0360826,0.051775 -0.0834597,0.0783622 -0.141931,0.0783622 -0.0411801,0 -0.12334,-0.0377818 -0.244282,-0.114745 -0.0347832,-0.0195905 -0.0783622,-0.0292859 -0.132036,-0.0292859 -0.242883,0 -0.534342,0.12444 -0.875577,0.37332 0.14573,0.0769628 0.24908,0.177614 0.31015,0.303454 0.0834597,0.177614 0.12454,0.395709 0.12454,0.655883 0,0.668377 -0.178114,1.37454 -0.533143,2.11708 -0.153226,0.317447 -0.301454,0.558031 -0.444685,0.721652 -0.154525,0.177514 -0.31015,0.265672 -0.470773,0.265672 -0.122241,0 -0.220594,-0.0657682 -0.296557,-0.195805 -0.0610705,-0.109047 -0.0909561,-0.258675 -0.0909561,-0.447484 0,-0.404105 0.135734,-1.01101 0.408603,-1.82212 0.0348832,-0.0992521 0.132036,-0.350931 0.292759,-0.757934 0.0410802,-0.102051 0.0809609,-0.209699 0.119542,-0.324343 -0.018691,0.0055973 -0.037282,0.00839595 -0.0547736,0.00839595 -0.0647687,0 -0.0984525,-0.0405804 -0.0984525,-0.123141 0,-0.14403 0.150727,-0.328541 0.452182,-0.552333zm0.12454 0.535541c-0.135734,0.28956 -0.316347,0.756535 -0.540639,1.40122 -0.230389,0.658682 -0.346233,1.16904 -0.346233,1.53266 0,0.0712656 0.0161922,0.134235 0.0472772,0.188809 0.0348832,0.0544737 0.0748639,0.0810609 0.120942,0.0810609 0.150627,0 0.348732,-0.283863 0.594113,-0.851589 0.277766,-0.633494 0.416099,-1.21381 0.416099,-1.74106 0,-0.205501 -0.0349831,-0.359327 -0.104649,-0.462877 -0.0273868,-0.0404805 -0.0897567,-0.0908561 -0.18691,-0.148228zm1.78134 0.0377818c-0.0734645,0.212597 -0.128338,0.384614 -0.164521,0.516051 -0.037282,0.131437 -0.0546736,0.222293 -0.0546736,0.274068 0,0.0684669 0.0285862,0.102051 0.0871579,0.102051 0.0871579,0 0.200603,-0.0922555 0.340036,-0.278266 0.0647687,-0.0894568 0.161922,-0.251678 0.291459,-0.486665 0.0510753,-0.0936548 0.104649,-0.139832 0.160722,-0.139832 0.0635693,0 0.0946543,0.0335838 0.0946543,0.102151 0,0.117443 -0.120842,0.355129 -0.361226,0.713156 -0.250379,0.374719 -0.483267,0.560729 -0.697563,0.560729 -0.0921555,0 -0.166919,-0.0433791 -0.225491,-0.130037 -0.0410802,-0.0629696 -0.06217,-0.139832 -0.06217,-0.229289 0,-0.153826 0.0409802,-0.365024 0.12454,-0.636293 0.0821603,-0.26987 0.205501,-0.598511 0.367423,-0.987323 0.418498,-0.985824 0.845792,-1.79833 1.28168,-2.43732 0.347632,-0.513252 0.636493,-0.770528 0.864583,-0.770528 0.0734645,0 0.133236,0.0321845 0.179313,0.0950541 0.0485765,0.0629696 0.0722651,0.135635 0.0722651,0.216795 0,0.383115 -0.303953,1.01941 -0.91176,1.90878 -0.272868,0.397108 -0.599211,0.792917 -0.977928,1.18863 -0.0995519,0.10345 -0.236586,0.243283 -0.408503,0.418098zm0.259075 -0.651585c0.505656,-0.486665 0.957938,-1.10057 1.35655,-1.84311 0.2067,-0.386014 0.31015,-0.640491 0.31015,-0.76633 0,-0.060171 -0.0224891,-0.0908561 -0.0685669,-0.0908561 -0.134535,0 -0.377418,0.299256 -0.729848,0.897767 -0.292759,0.490763 -0.581819,1.09207 -0.868281,1.80253zm1.76505 1.38433c-0.10455,0.163621 -0.196805,0.295058 -0.276467,0.39301 -0.140832,0.174816 -0.281564,0.262873 -0.419797,0.262873 -0.119642,0 -0.211798,-0.060171 -0.277866,-0.180413 -0.0459778,-0.0838595 -0.0684669,-0.18601 -0.0684669,-0.303454 0,-0.35233 0.133336,-0.756535 0.401106,-1.21241 0.12334,-0.212497 0.246681,-0.374719 0.368722,-0.487964 0.0946543,-0.0895568 0.171917,-0.134335 0.232888,-0.134335 0.0348832,0 0.0660681,0.0153926 0.0947543,0.0489764 0.024788,0.0293858 0.037282,0.060171 0.037282,0.0894568 0,0.0531743 -0.0447784,0.137134 -0.135734,0.254577 -0.201803,0.26987 -0.355029,0.51875 -0.459578,0.74534 -0.120842,0.265672 -0.181912,0.472672 -0.181912,0.623699 0,0.0376818 0.00749638,0.0670676 0.0236886,0.0880575 0.0148928,0.0195905 0.037382,0.0307851 0.0671676,0.0307851 0.12454,0 0.296557,-0.200003 0.51825,-0.598511 0.114645,-0.208399 0.212997,-0.437689 0.295158,-0.688068 0.0436789,-0.137034 0.100951,-0.258675 0.171917,-0.364924 0.0685669,-0.0964534 0.134535,-0.14403 0.200603,-0.14403 0.0360826,0 0.0697663,0.0181912 0.0984525,0.0530744 0.0323844,0.0391811 0.0472772,0.0811608 0.0472772,0.127339 0,0.0992521 -0.0834597,0.320245 -0.251678,0.664179 -0.114545,0.237785 -0.171817,0.43489 -0.171817,0.594313 0,0.169218 0.0410802,0.313249 0.120842,0.433491 0.0223892,0.0335838 0.0883573,0.0853588 0.200503,0.155225 0.0535741,0.0363824 0.0809609,0.0937547 0.0809609,0.173416 0,0.0489764 -0.018691,0.0909561 -0.0572724,0.125839 -0.037382,0.0363824 -0.0834597,0.0531743 -0.137034,0.0531743 -0.120842,0 -0.231688,-0.0545737 -0.33134,-0.163621 -0.0897567,-0.0978528 -0.146929,-0.240484 -0.171917,-0.425095 -0.00499759,-0.0251878 -0.0111946,-0.0964534 -0.018691,-0.213997zm1.88089 -1.82622c0.0410802,0 0.0747639,0.0166919 0.102151,0.0530744 0.018691,0.0293858 0.0285862,0.060171 0.0285862,0.0895568 0,0.0488764 -0.0347832,0.131437 -0.105849,0.246081 -0.252878,0.439088 -0.432291,0.801313 -0.53934,1.08518 -0.114645,0.292259 -0.215496,0.592914 -0.303853,0.901965 -0.0386813,0.135635 -0.0997518,0.204101 -0.181912,0.204101 -0.0486765,0 -0.0871579,-0.0209899 -0.117143,-0.0656683 -0.0260874,-0.0349831 -0.0398807,-0.0727649 -0.0398807,-0.114745 0,-0.0810609 0.0773627,-0.355129 0.232988,-0.819404 0.122041,-0.365024 0.318846,-0.769129 0.591714,-1.21241 0.0871579,-0.14403 0.153226,-0.241883 0.196705,-0.29086 0.0436789,-0.051775 0.0897567,-0.0768629 0.135834,-0.0768629zm0.692566 -1.52007c0.109547,0 0.164421,0.0628696 0.164421,0.18731 0,0.114745 -0.0535741,0.241983 -0.160722,0.381816 -0.102051,0.134235 -0.200503,0.200003 -0.295158,0.200003 -0.0460778,0 -0.0834597,-0.0181912 -0.113345,-0.0573723 -0.0286862,-0.0349831 -0.043579,-0.0783622 -0.043579,-0.130037 0,-0.131437 0.0647687,-0.271269 0.193007,-0.418098 0.0946543,-0.109147 0.180713,-0.163621 0.255377,-0.163621zm0.80721 1.58154c0.242883,-0.571924 0.473371,-1.06838 0.688767,-1.49208 0.209399,-0.409702 0.35263,-0.666978 0.427294,-0.774726 0.0835597,-0.117443 0.160722,-0.176215 0.234187,-0.176215 0.0385814,0 0.0735645,0.0181912 0.105949,0.0545737 0.0285862,0.0349831 0.043479,0.0727649 0.043479,0.114645 0,0.0615703 -0.0409802,0.167819 -0.12454,0.314648 -0.35243,0.639091 -0.676373,1.28798 -0.970232,1.94656 -0.340136,0.767729 -0.510853,1.34245 -0.510853,1.72427 0,0.155225 0.0261874,0.278266 0.0798614,0.369122 0.00989522,0.0181912 0.0534742,0.0629696 0.132036,0.131437 0.0136934,0.0125939 0.0211898,0.0405804 0.0211898,0.0811608 0,0.0544737 -0.0187909,0.104849 -0.0561729,0.149628 -0.037382,0.0446784 -0.0796615,0.0670676 -0.125739,0.0670676 -0.0560729,0 -0.118343,-0.0376818 -0.18691,-0.114645 -0.0971531,-0.109047 -0.155625,-0.234887 -0.174316,-0.376118 -0.00749638,-0.060171 -0.0161922,-0.172017 -0.0261874,-0.335638 -0.255377,0.515951 -0.498259,0.773327 -0.729948,0.773327 -0.133336,0 -0.240384,-0.0839595 -0.320145,-0.253178 -0.0535741,-0.111846 -0.0809609,-0.239085 -0.0809609,-0.381716 0,-0.425095 0.138233,-0.854388 0.415999,-1.28648 0.275367,-0.425195 0.570525,-0.639091 0.886972,-0.639091 0.0871579,0 0.178114,0.0349831 0.27027,0.10345zm-0.12464 0.335638c-0.0659682,-0.0489764 -0.122041,-0.0741642 -0.171817,-0.0741642 -0.204301,0 -0.397308,0.141232 -0.57922,0.422396 -0.241683,0.366323 -0.361226,0.718753 -0.361226,1.06129 0,0.0405804 0.00619701,0.0783622 0.0211898,0.114745 0.0297856,0.0670676 0.0734645,0.102051 0.132036,0.102051 0.0846591,0 0.188009,-0.0936548 0.31015,-0.278266 0.163121,-0.246081 0.313848,-0.537041 0.452182,-0.872579 0.0485765,-0.114745 0.0958537,-0.229389 0.142031,-0.344034 0,0 0.0111946,-0.0265872 0.0335838,-0.0782622l0.0210898 -0.0531743zm2.2808 -0.664279c0.150727,0 0.264073,0.0307851 0.338736,0.0909561 0.0760633,0.060071 0.113445,0.151027 0.113445,0.274068 0,0.160822 -0.0535741,0.316047 -0.160722,0.467075 -0.102051,0.141232 -0.255277,0.255876 -0.459678,0.343934 -0.112046,0.0461777 -0.205401,0.0699662 -0.281464,0.0699662 -0.102151,0 -0.153126,-0.0503757 -0.153126,-0.152426 0,-0.0671676 0.0297856,-0.120242 0.0883573,-0.155225 0.0136934,-0.00839595 0.0971531,-0.0307851 0.24788,-0.0699662 0.0896567,-0.0208899 0.173216,-0.0698663 0.24788,-0.142631 0.0660681,-0.0628696 0.0983525,-0.131437 0.0983525,-0.205501 0,-0.0573723 -0.0135934,-0.099352 -0.043479,-0.127239 -0.0286862,-0.0265872 -0.0723651,-0.0405804 -0.130837,-0.0405804 -0.142031,0 -0.297756,0.0643689 -0.467174,0.193007 -0.198004,0.14403 -0.296457,0.316047 -0.296457,0.515951 0,0.142631 0.0648687,0.318846 0.194406,0.532843 0.143231,0.232088 0.214197,0.427893 0.214197,0.590115 0,0.240484 -0.0946543,0.427893 -0.283963,0.564927 -0.117143,0.0852588 -0.24918,0.127239 -0.397308,0.127239 -0.234287,0 -0.411102,-0.0950541 -0.533143,-0.282464 -0.0847591,-0.134235 -0.128438,-0.292259 -0.128438,-0.47547 0,-0.213897 0.0486765,-0.391511 0.147029,-0.536941 0.0623699,-0.0951541 0.128338,-0.14403 0.196805,-0.14403 0.0610705,0 0.0909561,0.0279865 0.0909561,0.0824602 0,0.0223892 -0.0111946,0.0545737 -0.0323844,0.0978528 -0.0560729,0.117543 -0.0846591,0.255976 -0.0846591,0.414 0,0.134235 0.0423795,0.247481 0.128238,0.339736 0.0747639,0.0825601 0.161922,0.123141 0.259075,0.123141 0.0946543,0 0.169418,-0.0349831 0.221793,-0.106349 0.0447784,-0.060071 0.0659682,-0.135635 0.0659682,-0.229289 0,-0.114645 -0.0585717,-0.262873 -0.174416,-0.446085 -0.160622,-0.251678 -0.241583,-0.479668 -0.241583,-0.68387 0,-0.274068 0.133236,-0.515951 0.398608,-0.72575 0.257776,-0.202702 0.529344,-0.303454 0.817106,-0.303454zm3.26233 1.0362c0.0797615,0 0.184311,0.00279865 0.313848,0.00839595 0.235486,0.00839595 0.390012,0.0125939 0.463476,0.0125939 0.161922,0 0.271569,0.0181912 0.327642,0.0531743 0.0509754,0.0335838 0.0771627,0.0936548 0.0771627,0.180413 0,0.0852588 -0.024888,0.149628 -0.0734645,0.197105 -0.0286862,0.0237885 -0.0635693,0.0363824 -0.102151,0.0363824 -0.0261874,0 -0.0709657,-0.00419797 -0.134535,-0.0125939 -0.0971531,-0.0111946 -0.377418,-0.0167919 -0.839495,-0.0167919 -0.270369,0 -0.474671,0.0153926 -0.612904,0.0461777 -0.0659682,0.0125939 -0.118343,0.0195905 -0.157024,0.0195905 -0.0709657,0 -0.127039,-0.0349831 -0.168119,-0.106249 -0.0198904,-0.0349831 -0.0285862,-0.0755635 -0.0285862,-0.123141 0,-0.141232 0.0671676,-0.22789 0.204201,-0.257276 0.104749,-0.0251878 0.347632,-0.0377818 0.729948,-0.0377818zm4.57649 -0.855787c0.191807,0 0.287761,0.113245 0.287761,0.339836 0,0.199903 -0.0697663,0.399907 -0.208,0.602709 -0.107148,0.152426 -0.200503,0.229289 -0.280265,0.229289 -0.0684669,0 -0.10345,-0.0432791 -0.10345,-0.131437 0,-0.0461777 0.00999517,-0.0824602 0.0299855,-0.110447 0.00749638,-0.0111946 0.0359826,-0.0419797 0.0871579,-0.0936548 0.043579,-0.0461777 0.0896567,-0.116144 0.135734,-0.209799 0.0311849,-0.0629696 0.0473771,-0.113245 0.0473771,-0.151027 0,-0.0433791 -0.0223892,-0.0657682 -0.0660681,-0.0657682 -0.0509754,0 -0.129537,0.0447784 -0.234187,0.135635 -0.164421,0.14403 -0.330141,0.370621 -0.495661,0.679672 -0.170718,0.323044 -0.255377,0.576122 -0.255377,0.762132 0,0.060071 0.0160922,0.113245 0.0472772,0.159423 0.0460778,0.0712656 0.108348,0.106249 0.18561,0.106249 0.153226,0 0.335038,-0.106249 0.544337,-0.318846 0.178114,-0.183212 0.327542,-0.366323 0.448384,-0.549535 0.0635693,-0.100651 0.118443,-0.151027 0.164421,-0.151027 0.0274867,0 0.0511753,0.0139932 0.0735645,0.0405804 0.018591,0.0278865 0.0285862,0.0544737 0.0285862,0.0824602 0,0.100651 -0.115844,0.297856 -0.346233,0.590115 -0.367423,0.458679 -0.701361,0.688068 -1.00032,0.688068 -0.179313,0 -0.317547,-0.0727649 -0.412201,-0.216795 -0.0685669,-0.107648 -0.102251,-0.232188 -0.102251,-0.377618 0,-0.283863 0.104749,-0.612404 0.313948,-0.987223 0.201803,-0.358027 0.43599,-0.646088 0.701361,-0.864183 0.155725,-0.125839 0.291459,-0.188809 0.408503,-0.188809zm2.13137 -0.102051c0.199304,0 0.298956,0.135635 0.298956,0.409702 0,0.363624 -0.149528,0.823702 -0.448483,1.38023 -0.326342,0.604108 -0.64149,0.906163 -0.945444,0.906163 -0.140732,0 -0.244082,-0.0741642 -0.31015,-0.222393 -0.0335838,-0.0726649 -0.0510753,-0.162222 -0.0510753,-0.265672 0,-0.349631 0.107148,-0.729948 0.321445,-1.13965 0.199204,-0.379017 0.433391,-0.674075 0.70366,-0.883773 0.158224,-0.123141 0.301554,-0.184611 0.431092,-0.184611zm-0.379917 1.54795c-0.0610705,-0.0544737 -0.0909561,-0.0964534 -0.0909561,-0.127239 0,-0.0209899 0.0385814,-0.0810609 0.117143,-0.179014 0.219194,-0.276866 0.327542,-0.499159 0.327542,-0.668377 0,-0.0223892 -0.00499759,-0.0433791 -0.0174916,-0.0657682 -0.0198904,-0.0404805 -0.049776,-0.0614703 -0.0908561,-0.0614703 -0.0784621,0 -0.193107,0.0852588 -0.343834,0.254477 -0.194306,0.218195 -0.342535,0.443286 -0.444685,0.675474 -0.119542,0.265672 -0.179413,0.485166 -0.179413,0.659981 0,0.0461777 0.0111946,0.0867581 0.0336837,0.123041 0.0311849,0.0489764 0.0710657,0.0741642 0.119542,0.0741642 0.117143,0 0.242883,-0.0992521 0.376218,-0.295058 0.0585717,-0.0825601 0.105949,-0.167819 0.141931,-0.254477 0.0374819,-0.0881574 0.0536741,-0.132936 0.0511753,-0.135734zm1.77754 0.418198c-0.0797615,0.158024 -0.159523,0.292259 -0.236786,0.401306 -0.153226,0.213997 -0.305053,0.320245 -0.45578,0.320245 -0.132036,0 -0.234287,-0.0699662 -0.306452,-0.209799 -0.0461777,-0.0894568 -0.0697663,-0.195706 -0.0697663,-0.318846 0,-0.303454 0.0846591,-0.637592 0.255377,-1.00402 0.189309,-0.406904 0.418498,-0.720152 0.686369,-0.938347 0.175515,-0.141232 0.343734,-0.212497 0.506955,-0.212497 0.102051,0 0.18681,0.0349831 0.255277,0.106249 0.0585717,0.0629696 0.0871579,0.134235 0.0871579,0.212597 0,0.060071 -0.0198904,0.14403 -0.0609706,0.250279 0.0360826,0.0573723 0.0547736,0.107648 0.0547736,0.151027 0,0.0573723 -0.0348832,0.152426 -0.102151,0.283863 -0.0709657,0.132836 -0.141931,0.31045 -0.211698,0.531343 -0.0760633,0.234987 -0.113445,0.423795 -0.113445,0.566427 0,0.114645 0.0299855,0.208299 0.091056,0.282464 0.0173916,0.0195905 0.0671676,0.0502757 0.149428,0.0936548 0.0609706,0.0335838 0.0909561,0.0909561 0.0909561,0.172017 0,0.051775 -0.0161922,0.0950541 -0.0511753,0.127239 -0.0359826,0.0349831 -0.0783622,0.0531743 -0.127039,0.0531743 -0.132036,0 -0.244082,-0.0657682 -0.339936,-0.195805 -0.0773627,-0.107648 -0.115844,-0.240484 -0.115844,-0.402706 0,-0.0545737 0.00499759,-0.14403 0.0136934,-0.26987zm0.457079 -1.34805c-0.0298856,-0.060171 -0.0609706,-0.10355 -0.0958537,-0.132836 -0.0336837,-0.0293858 -0.0698663,-0.0433791 -0.108348,-0.0433791 -0.18571,0 -0.386214,0.181812 -0.603009,0.545337 -0.237885,0.401306 -0.357427,0.741142 -0.357427,1.01941 0,0.0685669 0.0111946,0.120342 0.0348832,0.156624 0.0223892,0.0349831 0.0572724,0.0531743 0.10335,0.0531743 0.117143,0 0.254177,-0.139832 0.409802,-0.418098 0.0872579,-0.152426 0.195606,-0.379017 0.323844,-0.675474 0.0860585,-0.194306 0.147029,-0.323044 0.18691,-0.385914 0.018691,-0.0321845 0.0548735,-0.0727649 0.105849,-0.118843z"/>
   <path id="_119102936" class="fil5" d="M58.635 16.5312c0.191707,0 0.287761,0.113245 0.287761,0.339836 0,0.199903 -0.0698663,0.399907 -0.2081,0.602709 -0.107148,0.152426 -0.200503,0.229289 -0.280265,0.229289 -0.0684669,0 -0.10335,-0.0432791 -0.10335,-0.131437 0,-0.0461777 0.00989522,-0.0824602 0.0298856,-0.110447 0.00749638,-0.0111946 0.0360826,-0.0419797 0.0871579,-0.0936548 0.043579,-0.0461777 0.0896567,-0.116144 0.135734,-0.209799 0.0311849,-0.0629696 0.0473771,-0.113245 0.0473771,-0.151027 0,-0.0433791 -0.0223892,-0.0657682 -0.0660681,-0.0657682 -0.0509754,0 -0.129537,0.0447784 -0.234087,0.135635 -0.164521,0.14403 -0.330141,0.370621 -0.495761,0.679672 -0.170718,0.323044 -0.255377,0.576122 -0.255377,0.762132 0,0.060071 0.0160922,0.113245 0.0472772,0.159423 0.0461777,0.0712656 0.108348,0.106249 0.18561,0.106249 0.153226,0 0.335038,-0.106249 0.544437,-0.318846 0.178014,-0.183212 0.327542,-0.366323 0.448284,-0.549535 0.0635693,-0.100651 0.118443,-0.151027 0.164521,-0.151027 0.0273868,0 0.0510753,0.0139932 0.0734645,0.0405804 0.018691,0.0278865 0.0285862,0.0544737 0.0285862,0.0824602 0,0.100651 -0.115844,0.297856 -0.346233,0.590115 -0.367423,0.458679 -0.701261,0.688068 -1.00032,0.688068 -0.179313,0 -0.317547,-0.0727649 -0.412201,-0.216795 -0.0685669,-0.107648 -0.102151,-0.232188 -0.102151,-0.377618 0,-0.283863 0.104649,-0.612404 0.313848,-0.987223 0.201803,-0.358027 0.436089,-0.646088 0.701361,-0.864183 0.155725,-0.125839 0.291459,-0.188809 0.408603,-0.188809zm1.60932 0.864183c0.180713,-0.209699 0.360026,-0.385914 0.540639,-0.528545 0.230389,-0.180413 0.396109,-0.26987 0.495761,-0.26987 0.0410802,0 0.0809609,0.0195905 0.120742,0.0572724 0.0436789,0.0433791 0.0648687,0.0937547 0.0648687,0.151027 0,0.0741642 -0.0523747,0.188809 -0.157024,0.344034 -0.201803,0.300655 -0.354929,0.574723 -0.459678,0.819404 -0.0920556,0.213997 -0.138233,0.358027 -0.138233,0.43499 0,0.0740642 0.0311849,0.110447 0.0947543,0.110447 0.132036,0 0.35243,-0.261474 0.66388,-0.785921 0.0634694,-0.107648 0.120842,-0.160822 0.171817,-0.160822 0.0511753,0 0.0773627,0.0335838 0.0773627,0.099352 0,0.106249 -0.0934549,0.308951 -0.277866,0.609606 -0.160622,0.262973 -0.328841,0.462877 -0.503157,0.602709 -0.12454,0.0951541 -0.236686,0.142631 -0.336338,0.142631 -0.104649,0 -0.179313,-0.0502757 -0.226691,-0.151027 -0.0286862,-0.0628696 -0.0436789,-0.132836 -0.0436789,-0.208299 0,-0.243383 0.0772627,-0.521648 0.230489,-0.832098 0.0360826,-0.0740642 0.14573,-0.283863 0.328841,-0.630596 -0.49696,0.281064 -0.916757,0.887971 -1.25929,1.82202 -0.0323844,0.106349 -0.0810609,0.160822 -0.14573,0.160822 -0.0461777,0 -0.0847591,-0.0180913 -0.113445,-0.0544737 -0.0297856,-0.0377818 -0.043579,-0.0839595 -0.043579,-0.138433 0,-0.0909561 0.0772627,-0.345433 0.232988,-0.76633 0.29026,-0.781723 0.55923,-1.4418 0.810909,-1.98294 0.250379,-0.546736 0.528145,-1.11316 0.834597,-1.70048 0.0734645,-0.141232 0.130737,-0.237685 0.171817,-0.286662 0.0410802,-0.0488764 0.0847591,-0.0740642 0.132036,-0.0740642 0.043579,0 0.0810609,0.0265872 0.112146,0.0782622 0.024888,0.0377818 0.037382,0.0825601 0.037382,0.131437 0,0.0769628 -0.0398807,0.179014 -0.117143,0.307651 -0.262773,0.45588 -0.524347,0.956538 -0.784721,1.50327 -0.280265,0.584518 -0.450982,0.983125 -0.514452,1.19562zm2.40534 -0.777425c0.0411801,0 0.0747639,0.0166919 0.102251,0.0530744 0.018691,0.0293858 0.0285862,0.060171 0.0285862,0.0895568 0,0.0488764 -0.0348832,0.131437 -0.105949,0.246081 -0.252778,0.439088 -0.432191,0.801313 -0.53934,1.08518 -0.114545,0.292259 -0.215396,0.592914 -0.303853,0.901965 -0.0386813,0.135635 -0.0997518,0.204101 -0.181912,0.204101 -0.0485765,0 -0.0871579,-0.0209899 -0.117043,-0.0656683 -0.0261874,-0.0349831 -0.0398807,-0.0727649 -0.0398807,-0.114745 0,-0.0810609 0.0772627,-0.355129 0.232888,-0.819404 0.122041,-0.365024 0.318946,-0.769129 0.591714,-1.21241 0.0871579,-0.14403 0.153226,-0.241883 0.196805,-0.29086 0.043579,-0.051775 0.0897567,-0.0768629 0.135734,-0.0768629zm0.692566 -1.52007c0.109647,0 0.164521,0.0628696 0.164521,0.18731 0,0.114745 -0.0536741,0.241983 -0.160722,0.381816 -0.102151,0.134235 -0.200503,0.200003 -0.295257,0.200003 -0.0460778,0 -0.0834597,-0.0181912 -0.113345,-0.0573723 -0.0286862,-0.0349831 -0.043579,-0.0783622 -0.043579,-0.130037 0,-0.131437 0.0647687,-0.271269 0.193107,-0.418098 0.0945544,-0.109147 0.180613,-0.163621 0.255277,-0.163621zm0.0112945 2.56886c0.031085,-0.0335838 0.0622699,-0.0657682 0.0909561,-0.099352 0.509454,-0.556531 0.84949,-0.834797 1.02261,-0.834797 0.0946543,0 0.142031,0.0586717 0.142031,0.176215 0,0.0810609 -0.0423795,0.178914 -0.128338,0.29086 -0.464576,0.608306 -0.696264,1.14525 -0.696264,1.60952 0,0.149628 0.0360826,0.293658 0.109547,0.430692 0.0336837,0.0629696 0.0511753,0.111846 0.0511753,0.146829 0,0.0335838 -0.0149928,0.0643689 -0.0436789,0.0936548 -0.0322844,0.0391811 -0.0696664,0.0573723 -0.113345,0.0573723 -0.0996519,0 -0.184311,-0.0699662 -0.251579,-0.212597 -0.0659682,-0.134235 -0.0996519,-0.296457 -0.0996519,-0.487964 0,-0.367822 0.12454,-0.776125 0.37242,-1.22361 -0.330041,0.236286 -0.637692,0.657183 -0.922954,1.26129 -0.0734645,0.14403 -0.150727,0.216795 -0.232988,0.216795 -0.0423795,0 -0.0759633,-0.0167919 -0.102051,-0.0489764 -0.0349831,-0.0376818 -0.0511753,-0.0880575 -0.0511753,-0.148228 0,-0.146829 0.149528,-0.532743 0.448483,-1.15924 0.160622,-0.338437 0.286462,-0.584518 0.379917,-0.736944 0.0921555,-0.149628 0.170618,-0.225191 0.236686,-0.225191 0.031085,0 0.06217,0.0167919 0.0908561,0.0489764 0.0348832,0.0377818 0.0510753,0.0825601 0.0510753,0.131437 0,0.060171 -0.0348832,0.14543 -0.105849,0.257376 -0.102151,0.167719 -0.184311,0.318746 -0.24788,0.45588zm2.33927 1.05289c0.260374,-0.213897 0.453481,-0.406904 0.58052,-0.581719 0.18691,-0.254477 0.320145,-0.461477 0.397408,-0.619501 0.0385814,-0.0712656 0.0796615,-0.106249 0.120742,-0.106249 0.0585717,0 0.0872579,0.0307851 0.0872579,0.0937547 0,0.0740642 -0.0460778,0.197105 -0.138233,0.369122 -0.287761,0.524447 -0.717554,0.981726 -1.29178,1.37184 -0.267871,0.629296 -0.464576,1.05439 -0.591614,1.27948 -0.335138,0.588716 -0.651485,0.883873 -0.949242,0.883873 -0.155725,0 -0.266571,-0.0671676 -0.335138,-0.204201 -0.0384814,-0.0797615 -0.0584718,-0.169218 -0.0584718,-0.271269 0,-0.427893 0.245382,-0.839095 0.737444,-1.23201 0.0772627,-0.0657682 0.392311,-0.271269 0.945444,-0.615303 0.107048,-0.253078 0.189309,-0.453081 0.24778,-0.598511 -0.255277,0.300655 -0.466975,0.451682 -0.635193,0.451682 -0.104649,0 -0.18561,-0.060171 -0.244182,-0.180413 -0.037382,-0.0796615 -0.0547736,-0.160822 -0.0547736,-0.246081 0,-0.197205 0.0710657,-0.448883 0.215496,-0.757934 0.204301,-0.444685 0.449683,-0.797115 0.736145,-1.05719 0.241683,-0.215396 0.45468,-0.323044 0.638992,-0.323044 0.0947543,0 0.176915,0.0391811 0.244182,0.118843 0.0472772,0.051775 0.0697663,0.128638 0.0697663,0.229389 0,0.125839 -0.037382,0.281064 -0.113345,0.467075 0.055973,0.060071 0.0846591,0.104849 0.0846591,0.134235 0,0.0195905 -0.012494,0.0474771 -0.037382,0.0824602 -0.0647687,0.100751 -0.170618,0.29086 -0.316347,0.569125 -0.129537,0.243383 -0.242883,0.490863 -0.340136,0.742542zm-0.024788 -0.946643c-0.0348832,-0.0419797 -0.0510753,-0.0699662 -0.0510753,-0.0867581 0,-0.0236886 0.0173916,-0.055873 0.0535741,-0.0936548 0.122041,-0.131437 0.220394,-0.26847 0.296357,-0.409702 0.0610705,-0.111946 0.0909561,-0.200003 0.0909561,-0.262973 0,-0.0726649 -0.0298856,-0.110447 -0.0909561,-0.110447 -0.104649,0 -0.254077,0.111846 -0.449583,0.337037 -0.230489,0.264272 -0.411102,0.560729 -0.53934,0.887971 -0.0635693,0.163621 -0.0947543,0.28946 -0.0947543,0.377618 0,0.0488764 0.0086958,0.0852588 0.0286862,0.110447 0.0198904,0.0237885 0.0472772,0.0363824 0.0834597,0.0363824 0.0859585,0 0.205501,-0.0979527 0.358727,-0.295058 0.0971531,-0.125939 0.179413,-0.24758 0.24788,-0.367822 0.0460778,-0.0796615 0.0685669,-0.120242 0.0660681,-0.123041zm-0.690067 1.78994c-0.321445,0.152426 -0.605508,0.384514 -0.850889,0.696364 -0.114545,0.14543 -0.195506,0.297856 -0.244082,0.458679 -0.0149928,0.0489764 -0.0224891,0.0909561 -0.0224891,0.123041 0,0.0363824 0.00749638,0.0671676 0.0224891,0.0937547 0.0261874,0.0502757 0.0646688,0.0740642 0.113345,0.0740642 0.150727,0 0.326342,-0.181812 0.529344,-0.543937 0.174416,-0.314648 0.325143,-0.615303 0.452282,-0.901965zm4.37459 -2.42483c0.37242,-0.901965 0.736245,-1.63471 1.09117,-2.20104 0.241683,-0.381816 0.440987,-0.660081 0.599111,-0.834897 0.109747,-0.123041 0.203102,-0.184511 0.281564,-0.184511 0.0286862,0 0.0535741,0.0110946 0.0760633,0.0320845 0.0334838,0.0279865 0.0509754,0.0643689 0.0509754,0.110547 0,0.060071 -0.0422796,0.146829 -0.127039,0.258675 -0.53814,0.687968 -1.02511,1.51307 -1.4599,2.47511 0.388612,-0.167819 0.660181,-0.250279 0.813407,-0.250279 0.112146,0 0.204301,0.0307851 0.277766,0.0936548 0.0748639,0.0657682 0.112146,0.141232 0.112146,0.225191 0,0.0447784 -0.012494,0.0838595 -0.0397808,0.118843 -0.0361825,0.051775 -0.0835597,0.0783622 -0.142031,0.0783622 -0.0411801,0 -0.12334,-0.0377818 -0.244282,-0.114745 -0.0347832,-0.0195905 -0.0783622,-0.0292859 -0.132036,-0.0292859 -0.242883,0 -0.534342,0.12444 -0.875577,0.37332 0.14573,0.0769628 0.24908,0.177614 0.31015,0.303454 0.0834597,0.177614 0.12454,0.395709 0.12454,0.655883 0,0.668377 -0.178114,1.37454 -0.533043,2.11708 -0.153326,0.317447 -0.301554,0.558031 -0.444785,0.721652 -0.154425,0.177514 -0.31015,0.265672 -0.470773,0.265672 -0.122141,0 -0.220594,-0.0657682 -0.296457,-0.195805 -0.0611705,-0.109047 -0.091056,-0.258675 -0.091056,-0.447484 0,-0.404105 0.135834,-1.01101 0.408603,-1.82212 0.0348832,-0.0992521 0.132036,-0.350931 0.292759,-0.757934 0.0410802,-0.102051 0.0809609,-0.209699 0.119542,-0.324343 -0.018691,0.0055973 -0.037282,0.00839595 -0.0547736,0.00839595 -0.0647687,0 -0.0984525,-0.0405804 -0.0984525,-0.123141 0,-0.14403 0.150727,-0.328541 0.452182,-0.552333zm0.12454 0.535541c-0.135734,0.28956 -0.316347,0.756535 -0.540539,1.40122 -0.230489,0.658682 -0.346333,1.16904 -0.346333,1.53266 0,0.0712656 0.0162921,0.134235 0.0472772,0.188809 0.0349831,0.0544737 0.0748639,0.0810609 0.120942,0.0810609 0.150627,0 0.348732,-0.283863 0.594113,-0.851589 0.277766,-0.633494 0.416099,-1.21381 0.416099,-1.74106 0,-0.205501 -0.0348832,-0.359327 -0.104649,-0.462877 -0.0273868,-0.0404805 -0.0897567,-0.0908561 -0.18691,-0.148228zm2.59105 -1.2445c0.199304,0 0.298956,0.135635 0.298956,0.409702 0,0.363624 -0.149528,0.823702 -0.448483,1.38023 -0.326342,0.604108 -0.64149,0.906163 -0.945444,0.906163 -0.140732,0 -0.244182,-0.0741642 -0.31015,-0.222393 -0.0335838,-0.0726649 -0.0510753,-0.162222 -0.0510753,-0.265672 0,-0.349631 0.107148,-0.729948 0.321445,-1.13965 0.199204,-0.379017 0.433391,-0.674075 0.70366,-0.883773 0.158224,-0.123141 0.301454,-0.184611 0.431092,-0.184611zm-0.379917 1.54795c-0.0610705,-0.0544737 -0.0909561,-0.0964534 -0.0909561,-0.127239 0,-0.0209899 0.0385814,-0.0810609 0.117043,-0.179014 0.219294,-0.276866 0.327642,-0.499159 0.327642,-0.668377 0,-0.0223892 -0.00499759,-0.0433791 -0.0174916,-0.0657682 -0.0198904,-0.0404805 -0.049776,-0.0614703 -0.0908561,-0.0614703 -0.0784621,0 -0.193207,0.0852588 -0.343834,0.254477 -0.194306,0.218195 -0.342535,0.443286 -0.444685,0.675474 -0.119542,0.265672 -0.179413,0.485166 -0.179413,0.659981 0,0.0461777 0.0111946,0.0867581 0.0336837,0.123041 0.0311849,0.0489764 0.0710657,0.0741642 0.119542,0.0741642 0.117043,0 0.242883,-0.0992521 0.376218,-0.295058 0.0585717,-0.0825601 0.105949,-0.167819 0.141931,-0.254477 0.037382,-0.0881574 0.0536741,-0.132936 0.0511753,-0.135734zm1.36894 -0.253078c0.239185,-0.286662 0.513152,-0.567726 0.824502,-0.840394 0.112246,-0.0979527 0.231788,-0.190208 0.358827,-0.274068 0.0622699,-0.0419797 0.10335,-0.0615703 0.119542,-0.0615703 0.0361825,0 0.0734645,0.0293858 0.109647,0.0894568 0.0223892,0.0335838 0.0323844,0.0629696 0.0323844,0.0909561 0,0.0488764 -0.0460778,0.116044 -0.138233,0.199903 -0.24788,0.220993 -0.37242,0.388812 -0.37242,0.500658 0,0.0629696 0.0322844,0.0936548 0.0946543,0.0936548 0.10455,0 0.285262,-0.0964534 0.540539,-0.29086 0.0436789,-0.0320845 0.0809609,-0.0488764 0.109647,-0.0488764 0.0198904,0 0.0386813,0.0111946 0.0585717,0.0321845 0.0210898,0.0250879 0.0322844,0.0502757 0.0322844,0.0782622 0,0.0824602 -0.102051,0.207 -0.306352,0.377518 -0.214297,0.179014 -0.417299,0.26997 -0.609106,0.26997 -0.0784621,0 -0.149528,-0.0237885 -0.215496,-0.0699662 -0.0560729,-0.0377818 -0.0835597,-0.106249 -0.0835597,-0.204101 0,-0.0685669 0.0249879,-0.146929 0.0760633,-0.233587 -0.191807,0.152426 -0.418498,0.4139 -0.678872,0.785921 -0.150727,0.229289 -0.300255,0.511753 -0.448483,0.84879 -0.055973,0.12444 -0.125739,0.18741 -0.2079,0.18741 -0.0896567,0 -0.135834,-0.047577 -0.135834,-0.142631 0,-0.0937547 0.0709657,-0.341235 0.211698,-0.74534 0.209399,-0.60131 0.428593,-1.06698 0.657682,-1.39703 0.140832,-0.205501 0.259175,-0.307651 0.353829,-0.307651 0.0311849,0 0.0609706,0.0111946 0.0871579,0.0321845 0.0324843,0.0279865 0.0473771,0.0615703 0.0473771,0.102051 0,0.0419797 -0.0236886,0.099352 -0.0722651,0.173416 -0.00999517,0.0125939 -0.074664,0.104849 -0.194306,0.274068 -0.108348,0.160822 -0.193107,0.320245 -0.251579,0.479668zm3.77418 0.560729l0 0.0741642c0,0.060071 0.012494,0.111846 0.0398807,0.155225 0.0611705,0.100651 0.160722,0.151027 0.299056,0.151027 0.303953,0 0.655184,-0.261474 1.05499,-0.785921 0.0697663,-0.0908561 0.129537,-0.135635 0.178214,-0.135635 0.0272868,0 0.0509754,0.0153926 0.0733646,0.0447784 0.0149928,0.0223892 0.0211898,0.0432791 0.0211898,0.0614703 0,0.107748 -0.115744,0.288061 -0.349931,0.541239 -0.181912,0.199903 -0.377518,0.362125 -0.584218,0.487964 -0.2068,0.125939 -0.398608,0.188809 -0.575522,0.188809 -0.183112,0 -0.326342,-0.0712656 -0.430992,-0.213897 -0.0709657,-0.0979527 -0.105949,-0.232188 -0.105949,-0.401406 0,-0.461477 0.193207,-0.913159 0.58052,-1.35645 0.313948,-0.359327 0.586717,-0.539739 0.820904,-0.539739 0.0634694,0 0.120842,0.0209899 0.171917,0.0656683 0.0622699,0.0573723 0.0946543,0.131536 0.0946543,0.225191 0,0.14403 -0.0598711,0.321645 -0.179413,0.532743 -0.245382,0.436389 -0.615303,0.738344 -1.10866,0.904763zm0.0798614 -0.320145c0.170618,-0.0643689 0.303953,-0.138533 0.401006,-0.220993 0.170718,-0.146829 0.305253,-0.313249 0.406104,-0.499259 0.0361825,-0.0656683 0.0535741,-0.12444 0.0535741,-0.176115 0,-0.0545737 -0.0223892,-0.0825601 -0.0684669,-0.0825601 -0.0635693,0 -0.153226,0.0531743 -0.270369,0.160822 -0.209199,0.18741 -0.383615,0.461477 -0.521848,0.818105zm2.18235 -0.0937547c-0.00749638,-0.0838595 -0.0111946,-0.16642 -0.0111946,-0.246081 0,-0.0727649 0.00249879,-0.16502 0.00739643,-0.274068 0.00629696,-0.183212 0.00999517,-0.28946 0.00999517,-0.320245 0.00249879,-0.172017 0.018691,-0.286662 0.0472772,-0.344034 0.037382,-0.0726649 0.0897567,-0.110447 0.157024,-0.110447 0.0448783,0 0.0809609,0.0181912 0.109547,0.0530744 0.0323844,0.0447784 0.0473771,0.0937547 0.0473771,0.148228 0,0.0377818 -0.00369821,0.0923554 -0.00999517,0.163621 -0.00739643,0.0685669 -0.0111946,0.153826 -0.0111946,0.258775 0,0.0404805 0.00129937,0.104849 0.00379817,0.191508 0.0485765,-0.0628696 0.149428,-0.188709 0.302654,-0.380316 0.240384,-0.306252 0.404805,-0.458679 0.491962,-0.458679 0.0274867,0 0.0498759,0.0125939 0.0698663,0.0405804 0.0198904,0.0306852 0.0298856,0.0628696 0.0298856,0.0978528 0,0.0685669 -0.0385814,0.139832 -0.113445,0.213997 -0.306352,0.304853 -0.567926,0.630596 -0.784721,0.974629 -0.00249879,0.0433791 -0.00369821,0.0741642 -0.00369821,0.0894568 0,0.208399 0.00369821,0.351031 0.0111946,0.430792 0.0111946,0.109047 0.0535741,0.163621 0.12334,0.163621 0.0734645,0 0.168119,-0.0839595 0.285262,-0.253178 0.143231,-0.208299 0.24788,-0.376118 0.313848,-0.504756 0.0635693,-0.120342 0.125839,-0.180413 0.189309,-0.180413 0.0511753,0 0.0772627,0.0349831 0.0772627,0.10345 0,0.12444 -0.118243,0.366423 -0.355029,0.72435 -0.133236,0.202802 -0.252878,0.356628 -0.357427,0.462877 -0.110846,0.111846 -0.217995,0.167819 -0.320145,0.167819 -0.14443,0 -0.232988,-0.100651 -0.266571,-0.303454 -0.0198904,-0.100651 -0.0348832,-0.254477 -0.043579,-0.462877 -0.0498759,0.0629696 -0.148228,0.200003 -0.296457,0.409702 -0.222992,0.320245 -0.378717,0.479668 -0.463376,0.479668 -0.0747639,0 -0.113445,-0.0712656 -0.113445,-0.212497 0,-0.051775 0.0161922,-0.099352 0.0473771,-0.14403 0.0199903,-0.0293858 0.0722651,-0.0853588 0.157024,-0.167819 0.158124,-0.158024 0.297656,-0.317447 0.415999,-0.479668 0.127039,-0.169218 0.210498,-0.279665 0.252878,-0.33144zm2.6968 -1.33965c0.191807,0 0.287761,0.113245 0.287761,0.339836 0,0.199903 -0.0697663,0.399907 -0.2081,0.602709 -0.107048,0.152426 -0.200503,0.229289 -0.280265,0.229289 -0.0684669,0 -0.10335,-0.0432791 -0.10335,-0.131437 0,-0.0461777 0.00999517,-0.0824602 0.0298856,-0.110447 0.00749638,-0.0111946 0.0360826,-0.0419797 0.0871579,-0.0936548 0.0436789,-0.0461777 0.0896567,-0.116144 0.135834,-0.209799 0.0311849,-0.0629696 0.0473771,-0.113245 0.0473771,-0.151027 0,-0.0433791 -0.0224891,-0.0657682 -0.0660681,-0.0657682 -0.0510753,0 -0.129537,0.0447784 -0.234187,0.135635 -0.164421,0.14403 -0.330141,0.370621 -0.495761,0.679672 -0.170618,0.323044 -0.255277,0.576122 -0.255277,0.762132 0,0.060071 0.0160922,0.113245 0.0472772,0.159423 0.0460778,0.0712656 0.108348,0.106249 0.18561,0.106249 0.153226,0 0.335038,-0.106249 0.544337,-0.318846 0.178014,-0.183212 0.327542,-0.366323 0.448384,-0.549535 0.0635693,-0.100651 0.118443,-0.151027 0.164421,-0.151027 0.0273868,0 0.0510753,0.0139932 0.0735645,0.0405804 0.018591,0.0278865 0.0285862,0.0544737 0.0285862,0.0824602 0,0.100651 -0.115844,0.297856 -0.346233,0.590115 -0.367523,0.458679 -0.701361,0.688068 -1.00032,0.688068 -0.179313,0 -0.317547,-0.0727649 -0.412201,-0.216795 -0.0685669,-0.107648 -0.102251,-0.232188 -0.102251,-0.377618 0,-0.283863 0.104749,-0.612404 0.313948,-0.987223 0.201703,-0.358027 0.43599,-0.646088 0.701261,-0.864183 0.155725,-0.125839 0.291559,-0.188809 0.408603,-0.188809zm1.00771 1.75355l0 0.0741642c0,0.060071 0.012494,0.111846 0.0398807,0.155225 0.0610705,0.100651 0.160722,0.151027 0.298956,0.151027 0.303953,0 0.655184,-0.261474 1.05509,-0.785921 0.0696664,-0.0908561 0.129537,-0.135635 0.178114,-0.135635 0.0273868,0 0.0509754,0.0153926 0.0734645,0.0447784 0.0149928,0.0223892 0.0211898,0.0432791 0.0211898,0.0614703 0,0.107748 -0.115844,0.288061 -0.350031,0.541239 -0.181912,0.199903 -0.377518,0.362125 -0.584218,0.487964 -0.2067,0.125939 -0.398608,0.188809 -0.575522,0.188809 -0.183012,0 -0.326243,-0.0712656 -0.430892,-0.213897 -0.0710657,-0.0979527 -0.105949,-0.232188 -0.105949,-0.401406 0,-0.461477 0.193107,-0.913159 0.58052,-1.35645 0.313948,-0.359327 0.586717,-0.539739 0.820904,-0.539739 0.0634694,0 0.120742,0.0209899 0.171917,0.0656683 0.06217,0.0573723 0.0946543,0.131536 0.0946543,0.225191 0,0.14403 -0.0598711,0.321645 -0.179413,0.532743 -0.245382,0.436389 -0.615303,0.738344 -1.10866,0.904763zm0.0797615 -0.320145c0.170718,-0.0643689 0.303953,-0.138533 0.401106,-0.220993 0.170618,-0.146829 0.305153,-0.313249 0.406104,-0.499259 0.0360826,-0.0656683 0.0534742,-0.12444 0.0534742,-0.176115 0,-0.0545737 -0.0223892,-0.0825601 -0.0684669,-0.0825601 -0.0635693,0 -0.153226,0.0531743 -0.27027,0.160822 -0.209299,0.18741 -0.383715,0.461477 -0.521948,0.818105zm2.2845 -0.253178c-0.0734645,0.212597 -0.128338,0.384614 -0.164421,0.516051 -0.037282,0.131437 -0.0547736,0.222293 -0.0547736,0.274068 0,0.0684669 0.0286862,0.102051 0.0871579,0.102051 0.0871579,0 0.200603,-0.0922555 0.340136,-0.278266 0.0646688,-0.0894568 0.161822,-0.251678 0.291359,-0.486665 0.0511753,-0.0936548 0.104749,-0.139832 0.160722,-0.139832 0.0635693,0 0.0946543,0.0335838 0.0946543,0.102151 0,0.117443 -0.120842,0.355129 -0.361226,0.713156 -0.250379,0.374719 -0.483267,0.560729 -0.697563,0.560729 -0.0921555,0 -0.166819,-0.0433791 -0.225391,-0.130037 -0.0411801,-0.0629696 -0.0622699,-0.139832 -0.0622699,-0.229289 0,-0.153826 0.0410802,-0.365024 0.12454,-0.636293 0.0821603,-0.26987 0.205501,-0.598511 0.367423,-0.987323 0.418598,-0.985824 0.845892,-1.79833 1.28178,-2.43732 0.347532,-0.513252 0.636493,-0.770528 0.864483,-0.770528 0.0734645,0 0.133336,0.0321845 0.179313,0.0950541 0.0485765,0.0629696 0.0722651,0.135635 0.0722651,0.216795 0,0.383115 -0.303953,1.01941 -0.91176,1.90878 -0.272768,0.397108 -0.599211,0.792917 -0.977828,1.18863 -0.0996519,0.10345 -0.236686,0.243283 -0.408603,0.418098zm0.259075 -0.651585c0.505756,-0.486665 0.957938,-1.10057 1.35655,-1.84311 0.2067,-0.386014 0.31015,-0.640491 0.31015,-0.76633 0,-0.060171 -0.0223892,-0.0908561 -0.0685669,-0.0908561 -0.134535,0 -0.377418,0.299256 -0.729848,0.897767 -0.292759,0.490763 -0.581719,1.09207 -0.868281,1.80253zm1.34655 0.651585c-0.0734645,0.212597 -0.128238,0.384614 -0.164421,0.516051 -0.037282,0.131437 -0.0547736,0.222293 -0.0547736,0.274068 0,0.0684669 0.0286862,0.102051 0.0871579,0.102051 0.0871579,0 0.200603,-0.0922555 0.340136,-0.278266 0.0646688,-0.0894568 0.161822,-0.251678 0.291359,-0.486665 0.0511753,-0.0936548 0.104749,-0.139832 0.160722,-0.139832 0.0635693,0 0.0946543,0.0335838 0.0946543,0.102151 0,0.117443 -0.120842,0.355129 -0.361226,0.713156 -0.250379,0.374719 -0.483267,0.560729 -0.697563,0.560729 -0.0921555,0 -0.166819,-0.0433791 -0.225391,-0.130037 -0.0411801,-0.0629696 -0.0622699,-0.139832 -0.0622699,-0.229289 0,-0.153826 0.0410802,-0.365024 0.12454,-0.636293 0.0821603,-0.26987 0.205501,-0.598511 0.367423,-0.987323 0.418598,-0.985824 0.845892,-1.79833 1.28178,-2.43732 0.347532,-0.513252 0.636493,-0.770528 0.864483,-0.770528 0.0734645,0 0.133336,0.0321845 0.179313,0.0950541 0.0485765,0.0629696 0.0722651,0.135635 0.0722651,0.216795 0,0.383115 -0.303953,1.01941 -0.91176,1.90878 -0.272768,0.397108 -0.599211,0.792917 -0.977828,1.18863 -0.0996519,0.10345 -0.236686,0.243283 -0.408603,0.418098zm0.259075 -0.651585c0.505756,-0.486665 0.957938,-1.10057 1.35655,-1.84311 0.2067,-0.386014 0.31015,-0.640491 0.31015,-0.76633 0,-0.060171 -0.0223892,-0.0908561 -0.0685669,-0.0908561 -0.134535,0 -0.377418,0.299256 -0.729848,0.897767 -0.292759,0.490763 -0.581719,1.09207 -0.868281,1.80253zm1.0326 1.22491l0 0.0741642c0,0.060071 0.012494,0.111846 0.0398807,0.155225 0.0610705,0.100651 0.160722,0.151027 0.299056,0.151027 0.303953,0 0.655184,-0.261474 1.05499,-0.785921 0.0697663,-0.0908561 0.129537,-0.135635 0.178214,-0.135635 0.0272868,0 0.0509754,0.0153926 0.0733646,0.0447784 0.0149928,0.0223892 0.0211898,0.0432791 0.0211898,0.0614703 0,0.107748 -0.115744,0.288061 -0.349931,0.541239 -0.181912,0.199903 -0.377518,0.362125 -0.584218,0.487964 -0.2068,0.125939 -0.398608,0.188809 -0.575522,0.188809 -0.183112,0 -0.326342,-0.0712656 -0.430992,-0.213897 -0.0709657,-0.0979527 -0.105949,-0.232188 -0.105949,-0.401406 0,-0.461477 0.193107,-0.913159 0.58052,-1.35645 0.313948,-0.359327 0.586717,-0.539739 0.820904,-0.539739 0.0634694,0 0.120842,0.0209899 0.171917,0.0656683 0.0622699,0.0573723 0.0946543,0.131536 0.0946543,0.225191 0,0.14403 -0.0598711,0.321645 -0.179413,0.532743 -0.245382,0.436389 -0.615303,0.738344 -1.10866,0.904763zm0.0797615 -0.320145c0.170718,-0.0643689 0.303953,-0.138533 0.401106,-0.220993 0.170718,-0.146829 0.305253,-0.313249 0.406104,-0.499259 0.0361825,-0.0656683 0.0534742,-0.12444 0.0534742,-0.176115 0,-0.0545737 -0.0222892,-0.0825601 -0.0684669,-0.0825601 -0.0635693,0 -0.153226,0.0531743 -0.27027,0.160822 -0.209199,0.18741 -0.383615,0.461477 -0.521948,0.818105zm2.36056 -0.297856c0.031085,-0.0335838 0.0622699,-0.0657682 0.0909561,-0.099352 0.509454,-0.556531 0.84949,-0.834797 1.02261,-0.834797 0.0946543,0 0.142031,0.0586717 0.142031,0.176215 0,0.0810609 -0.0423795,0.178914 -0.128338,0.29086 -0.464576,0.608306 -0.696264,1.14525 -0.696264,1.60952 0,0.149628 0.0360826,0.293658 0.109547,0.430692 0.0336837,0.0629696 0.0510753,0.111846 0.0510753,0.146829 0,0.0335838 -0.0148928,0.0643689 -0.043579,0.0936548 -0.0322844,0.0391811 -0.0697663,0.0573723 -0.113345,0.0573723 -0.0996519,0 -0.184311,-0.0699662 -0.251579,-0.212597 -0.0659682,-0.134235 -0.0996519,-0.296457 -0.0996519,-0.487964 0,-0.367822 0.12454,-0.776125 0.37242,-1.22361 -0.330041,0.236286 -0.637792,0.657183 -0.923054,1.26129 -0.0733646,0.14403 -0.150727,0.216795 -0.232888,0.216795 -0.0423795,0 -0.0760633,-0.0167919 -0.102151,-0.0489764 -0.0348832,-0.0376818 -0.0510753,-0.0880575 -0.0510753,-0.148228 0,-0.146829 0.149528,-0.532743 0.448483,-1.15924 0.160622,-0.338437 0.286462,-0.584518 0.379917,-0.736944 0.0921555,-0.149628 0.170618,-0.225191 0.236586,-0.225191 0.0311849,0 0.0622699,0.0167919 0.0909561,0.0489764 0.0348832,0.0377818 0.0510753,0.0825601 0.0510753,0.131437 0,0.060171 -0.0348832,0.14543 -0.105849,0.257376 -0.102151,0.167719 -0.184411,0.318746 -0.24788,0.45588zm2.56976 -1.13555c0.191807,0 0.287761,0.113245 0.287761,0.339836 0,0.199903 -0.0697663,0.399907 -0.208,0.602709 -0.107148,0.152426 -0.200503,0.229289 -0.280365,0.229289 -0.0684669,0 -0.10335,-0.0432791 -0.10335,-0.131437 0,-0.0461777 0.00999517,-0.0824602 0.0299855,-0.110447 0.00739643,-0.0111946 0.0359826,-0.0419797 0.0871579,-0.0936548 0.043579,-0.0461777 0.0896567,-0.116144 0.135734,-0.209799 0.0311849,-0.0629696 0.0473771,-0.113245 0.0473771,-0.151027 0,-0.0433791 -0.0224891,-0.0657682 -0.0660681,-0.0657682 -0.0509754,0 -0.129537,0.0447784 -0.234187,0.135635 -0.164421,0.14403 -0.330141,0.370621 -0.495661,0.679672 -0.170718,0.323044 -0.255377,0.576122 -0.255377,0.762132 0,0.060071 0.0160922,0.113245 0.0472772,0.159423 0.0460778,0.0712656 0.108348,0.106249 0.18561,0.106249 0.153226,0 0.335038,-0.106249 0.544337,-0.318846 0.178114,-0.183212 0.327542,-0.366323 0.448384,-0.549535 0.0635693,-0.100651 0.118443,-0.151027 0.164421,-0.151027 0.0274867,0 0.0511753,0.0139932 0.0735645,0.0405804 0.018591,0.0278865 0.0285862,0.0544737 0.0285862,0.0824602 0,0.100651 -0.115844,0.297856 -0.346233,0.590115 -0.367423,0.458679 -0.701361,0.688068 -1.00032,0.688068 -0.179313,0 -0.317547,-0.0727649 -0.412201,-0.216795 -0.0685669,-0.107648 -0.102251,-0.232188 -0.102251,-0.377618 0,-0.283863 0.104749,-0.612404 0.313948,-0.987223 0.201803,-0.358027 0.43599,-0.646088 0.701361,-0.864183 0.155725,-0.125839 0.291459,-0.188809 0.408503,-0.188809zm1.00771 1.75355l0 0.0741642c0,0.060071 0.012494,0.111846 0.0398807,0.155225 0.0610705,0.100651 0.160722,0.151027 0.298956,0.151027 0.303953,0 0.655184,-0.261474 1.05509,-0.785921 0.0696664,-0.0908561 0.129537,-0.135635 0.178114,-0.135635 0.0273868,0 0.0510753,0.0153926 0.0734645,0.0447784 0.0149928,0.0223892 0.0211898,0.0432791 0.0211898,0.0614703 0,0.107748 -0.115844,0.288061 -0.349931,0.541239 -0.181912,0.199903 -0.377518,0.362125 -0.584318,0.487964 -0.2067,0.125939 -0.398608,0.188809 -0.575522,0.188809 -0.183012,0 -0.326243,-0.0712656 -0.430892,-0.213897 -0.0710657,-0.0979527 -0.105949,-0.232188 -0.105949,-0.401406 0,-0.461477 0.193107,-0.913159 0.58052,-1.35645 0.313948,-0.359327 0.586717,-0.539739 0.820904,-0.539739 0.0634694,0 0.120842,0.0209899 0.171917,0.0656683 0.06217,0.0573723 0.0946543,0.131536 0.0946543,0.225191 0,0.14403 -0.0598711,0.321645 -0.179413,0.532743 -0.245382,0.436389 -0.615303,0.738344 -1.10866,0.904763zm0.0797615 -0.320145c0.170718,-0.0643689 0.303953,-0.138533 0.401106,-0.220993 0.170718,-0.146829 0.305253,-0.313249 0.406104,-0.499259 0.0360826,-0.0656683 0.0534742,-0.12444 0.0534742,-0.176115 0,-0.0545737 -0.0222892,-0.0825601 -0.0684669,-0.0825601 -0.0635693,0 -0.153226,0.0531743 -0.27027,0.160822 -0.209199,0.18741 -0.383615,0.461477 -0.521948,0.818105z"/>
   <path id="_119102864" class="fil5" d="M98.5979 13.9051c0.0535741,0 0.0946543,0.0250879 0.12454,0.0740642 0.0236886,0.0405804 0.0361825,0.0867581 0.0361825,0.138433 0,0.113245 -0.0735645,0.323044 -0.219294,0.632095 -0.597911,1.25859 -1.13855,2.31018 -1.62052,3.15478 -0.0772627,0.138433 -0.125939,0.232088 -0.14573,0.278266 -0.0635693,0.132836 -0.128338,0.200003 -0.196905,0.200003 -0.0485765,0 -0.0908561,-0.0307851 -0.128238,-0.0937547 -0.0311849,-0.0516751 -0.0473771,-0.107648 -0.0473771,-0.167819 0,-0.0768629 0.0360826,-0.183112 0.105949,-0.320145 0.0197904,-0.0377818 0.10455,-0.18741 0.255277,-0.446085 0.193107,-0.363624 0.383715,-0.723051 0.573023,-1.07818 0.0635693,-0.121641 0.252878,-0.510454 0.569225,-1.16344 0.112146,-0.229389 0.200603,-0.409802 0.266571,-0.539839 0.0785621,-0.156624 0.152027,-0.317447 0.222892,-0.483866 0.0536741,-0.123041 0.122241,-0.184511 0.204401,-0.184511zm-2.37166 4.86775c0.0534742,0 0.0983525,0.0265872 0.134535,0.0811608 0.024888,0.0362825 0.0359826,0.0810609 0.0359826,0.135635 0,0.128638 -0.031085,0.262873 -0.0946543,0.405504 -0.0659682,0.149628 -0.151927,0.225091 -0.259075,0.225091 -0.112046,0 -0.168119,-0.0712656 -0.168119,-0.212497 0,-0.142631 0.0398807,-0.286662 0.117043,-0.43489 0.0710657,-0.134235 0.148228,-0.200003 0.234287,-0.200003z"/>
  </g>
 </g>
</svg>
